<?xml version="1.0" encoding="UTF-8" standalone="no"?>
<!DOCTYPE svg PUBLIC "-//W3C//DTD SVG 1.1//EN"
 "http://www.w3.org/Graphics/SVG/1.1/DTD/svg11.dtd">
<!-- Generated by graphviz version 13.0.1 (20250615.1724)
 -->
<!-- Title: AudiencePipeline Pages: 1 -->
<svg width="1096pt" height="840pt"
 viewBox="0.00 0.00 1096.00 840.00" xmlns="http://www.w3.org/2000/svg" xmlns:xlink="http://www.w3.org/1999/xlink">
<g id="graph0" class="graph" transform="scale(1 1) rotate(0) translate(4 836)">
<title>AudiencePipeline</title>
<polygon fill="#1a1a1a" stroke="none" points="-4,4 -4,-836 1092.09,-836 1092.09,4 -4,4"/>
<g id="clust1" class="cluster">
<title>cluster_sources</title>
<polygon fill="#2d2d2d" stroke="black" points="8,-265 8,-341 161.25,-341 161.25,-265 8,-265"/>
<text xml:space="preserve" text-anchor="middle" x="84.62" y="-323.7" font-family="Arial" font-size="14.00" fill="white">CONTENT SOURCES</text>
</g>
<g id="clust2" class="cluster">
<title>cluster_processing</title>
<polygon fill="#2d2d2d" stroke="black" points="211.75,-222 211.75,-454 389,-454 389,-222 211.75,-222"/>
<text xml:space="preserve" text-anchor="middle" x="300.38" y="-436.7" font-family="Arial" font-size="14.00" fill="white">CONTENT PROCESSING</text>
</g>
<g id="clust3" class="cluster">
<title>cluster_formats</title>
<polygon fill="#2d2d2d" stroke="black" points="438.5,-598 438.5,-824 747.05,-824 747.05,-598 438.5,-598"/>
<text xml:space="preserve" text-anchor="middle" x="592.77" y="-806.7" font-family="Arial" font-size="14.00" fill="white">CONTENT FORMATS</text>
</g>
<g id="clust4" class="cluster">
<title>cluster_distribution</title>
<polygon fill="#2d2d2d" stroke="black" points="597.75,-334 597.75,-590 799.09,-590 799.09,-334 597.75,-334"/>
<text xml:space="preserve" text-anchor="middle" x="698.42" y="-572.7" font-family="Arial" font-size="14.00" fill="white">DISTRIBUTION CHANNELS</text>
</g>
<g id="clust5" class="cluster">
<title>cluster_audiences</title>
<polygon fill="#2d2d2d" stroke="black" points="864.09,-223 864.09,-609 1080.09,-609 1080.09,-223 864.09,-223"/>
<text xml:space="preserve" text-anchor="middle" x="972.09" y="-591.7" font-family="Arial" font-size="14.00" fill="white">TARGET AUDIENCES</text>
</g>
<g id="clust6" class="cluster">
<title>cluster_monetization</title>
<polygon fill="#2d2d2d" stroke="black" points="613.89,-8 613.89,-326 782.96,-326 782.96,-8 613.89,-8"/>
<text xml:space="preserve" text-anchor="middle" x="698.42" y="-308.7" font-family="Arial" font-size="14.00" fill="white">REVENUE STREAMS</text>
</g>
<!-- scranton_news -->
<g id="node1" class="node">
<title>scranton_news</title>
<polygon fill="#4caf50" stroke="black" points="128.88,-309.25 39.38,-309.25 39.38,-272.75 128.88,-272.75 128.88,-309.25"/>
<text xml:space="preserve" text-anchor="middle" x="84.13" y="-293.85" font-family="Arial" font-size="12.00">Scranton</text>
<text xml:space="preserve" text-anchor="middle" x="84.13" y="-279.6" font-family="Arial" font-size="12.00">News Articles</text>
</g>
<!-- distillation -->
<g id="node2" class="node">
<title>distillation</title>
<ellipse fill="#ff9800" stroke="black" cx="299.88" cy="-396" rx="63.29" ry="25.81"/>
<text xml:space="preserve" text-anchor="middle" x="299.88" y="-398.85" font-family="Arial" font-size="12.00">AI Distillation</text>
<text xml:space="preserve" text-anchor="middle" x="299.88" y="-384.6" font-family="Arial" font-size="12.00">(SVO Format)</text>
</g>
<!-- scranton_news&#45;&gt;distillation -->
<g id="edge1" class="edge">
<title>scranton_news&#45;&gt;distillation</title>
<path fill="none" stroke="white" d="M116.3,-309.65C141.6,-324.43 178.4,-345.16 211.75,-361 221.37,-365.57 231.75,-370.08 241.88,-374.28"/>
<polygon fill="white" stroke="white" points="240.31,-377.42 250.9,-377.95 242.95,-370.94 240.31,-377.42"/>
<text xml:space="preserve" text-anchor="middle" x="186.5" y="-358.39" font-family="Arial" font-size="10.00" fill="white">process</text>
</g>
<!-- sentiment -->
<g id="node3" class="node">
<title>sentiment</title>
<ellipse fill="#2196f3" stroke="black" cx="299.88" cy="-326" rx="49.5" ry="25.81"/>
<text xml:space="preserve" text-anchor="middle" x="299.88" y="-328.85" font-family="Arial" font-size="12.00">Sentiment</text>
<text xml:space="preserve" text-anchor="middle" x="299.88" y="-314.6" font-family="Arial" font-size="12.00">Analysis</text>
</g>
<!-- scranton_news&#45;&gt;sentiment -->
<g id="edge2" class="edge">
<title>scranton_news&#45;&gt;sentiment</title>
<path fill="none" stroke="white" d="M129.15,-298.21C161.58,-303.52 205.97,-310.79 241.22,-316.56"/>
<polygon fill="white" stroke="white" points="240.38,-319.97 250.82,-318.13 241.52,-313.06 240.38,-319.97"/>
<text xml:space="preserve" text-anchor="middle" x="186.5" y="-312.05" font-family="Arial" font-size="10.00" fill="white">analyze</text>
</g>
<!-- knowledge_graphs -->
<g id="node4" class="node">
<title>knowledge_graphs</title>
<ellipse fill="#9c27b0" stroke="black" cx="299.88" cy="-256" rx="54.27" ry="25.81"/>
<text xml:space="preserve" text-anchor="middle" x="299.88" y="-258.85" font-family="Arial" font-size="12.00">Knowledge</text>
<text xml:space="preserve" text-anchor="middle" x="299.88" y="-244.6" font-family="Arial" font-size="12.00">Graph Gen</text>
</g>
<!-- scranton_news&#45;&gt;knowledge_graphs -->
<g id="edge3" class="edge">
<title>scranton_news&#45;&gt;knowledge_graphs</title>
<path fill="none" stroke="white" d="M129.15,-283.79C160.36,-278.68 202.66,-271.75 237.22,-266.1"/>
<polygon fill="white" stroke="white" points="237.35,-269.62 246.65,-264.55 236.22,-262.71 237.35,-269.62"/>
<text xml:space="preserve" text-anchor="middle" x="186.5" y="-279.13" font-family="Arial" font-size="10.00" fill="white">extract</text>
</g>
<!-- raw_format -->
<g id="node5" class="node">
<title>raw_format</title>
<path fill="#e0e0e0" stroke="black" d="M510.88,-787.53C510.88,-790.05 497.88,-792.09 481.88,-792.09 465.87,-792.09 452.88,-790.05 452.88,-787.53 452.88,-787.53 452.88,-746.47 452.88,-746.47 452.88,-743.95 465.87,-741.91 481.88,-741.91 497.88,-741.91 510.88,-743.95 510.88,-746.47 510.88,-746.47 510.88,-787.53 510.88,-787.53"/>
<path fill="none" stroke="black" d="M510.88,-787.53C510.88,-785.01 497.88,-782.97 481.88,-782.97 465.87,-782.97 452.88,-785.01 452.88,-787.53"/>
<text xml:space="preserve" text-anchor="middle" x="481.88" y="-769.85" font-family="Arial" font-size="12.00">Original</text>
<text xml:space="preserve" text-anchor="middle" x="481.88" y="-755.6" font-family="Arial" font-size="12.00">Articles</text>
</g>
<!-- distillation&#45;&gt;raw_format -->
<g id="edge4" class="edge">
<title>distillation&#45;&gt;raw_format</title>
<path fill="none" stroke="white" d="M306.18,-421.74C319.57,-481.71 359.44,-633.17 438.5,-733 440.29,-735.26 442.26,-737.47 444.34,-739.61"/>
<polygon fill="white" stroke="white" points="441.95,-742.16 451.66,-746.4 446.71,-737.03 441.95,-742.16"/>
</g>
<!-- distilled_format -->
<g id="node6" class="node">
<title>distilled_format</title>
<path fill="#ffd54f" stroke="black" d="M511.63,-719.53C511.63,-722.05 498.29,-724.09 481.88,-724.09 465.46,-724.09 452.13,-722.05 452.13,-719.53 452.13,-719.53 452.13,-678.47 452.13,-678.47 452.13,-675.95 465.46,-673.91 481.88,-673.91 498.29,-673.91 511.63,-675.95 511.63,-678.47 511.63,-678.47 511.63,-719.53 511.63,-719.53"/>
<path fill="none" stroke="black" d="M511.63,-719.53C511.63,-717.01 498.29,-714.97 481.88,-714.97 465.46,-714.97 452.13,-717.01 452.13,-719.53"/>
<text xml:space="preserve" text-anchor="middle" x="481.88" y="-701.85" font-family="Arial" font-size="12.00">Distilled</text>
<text xml:space="preserve" text-anchor="middle" x="481.88" y="-687.6" font-family="Arial" font-size="12.00">Text</text>
</g>
<!-- distillation&#45;&gt;distilled_format -->
<g id="edge5" class="edge">
<title>distillation&#45;&gt;distilled_format</title>
<path fill="none" stroke="white" d="M309.87,-421.81C328.32,-472.31 374.21,-586.11 438.5,-665 440.1,-666.96 441.83,-668.88 443.64,-670.75"/>
<polygon fill="white" stroke="white" points="441.2,-673.27 450.89,-677.55 445.99,-668.16 441.2,-673.27"/>
</g>
<!-- sentiment&#45;&gt;distilled_format -->
<g id="edge6" class="edge">
<title>sentiment&#45;&gt;distilled_format</title>
<path fill="none" stroke="white" d="M346.76,-334.55C362.35,-339.7 378.48,-347.91 389,-361 391.68,-364.33 436.34,-661.3 438.5,-665 440.1,-667.75 442.02,-670.37 444.14,-672.83"/>
<polygon fill="white" stroke="white" points="441.35,-674.99 450.9,-679.58 446.29,-670.04 441.35,-674.99"/>
</g>
<!-- graph_format -->
<g id="node7" class="node">
<title>graph_format</title>
<path fill="#81c784" stroke="black" d="M517.25,-651.53C517.25,-654.05 501.39,-656.09 481.88,-656.09 462.36,-656.09 446.5,-654.05 446.5,-651.53 446.5,-651.53 446.5,-610.47 446.5,-610.47 446.5,-607.95 462.36,-605.91 481.88,-605.91 501.39,-605.91 517.25,-607.95 517.25,-610.47 517.25,-610.47 517.25,-651.53 517.25,-651.53"/>
<path fill="none" stroke="black" d="M517.25,-651.53C517.25,-649.01 501.39,-646.97 481.88,-646.97 462.36,-646.97 446.5,-649.01 446.5,-651.53"/>
<text xml:space="preserve" text-anchor="middle" x="481.88" y="-633.85" font-family="Arial" font-size="12.00">Interactive</text>
<text xml:space="preserve" text-anchor="middle" x="481.88" y="-619.6" font-family="Arial" font-size="12.00">Graphs</text>
</g>
<!-- knowledge_graphs&#45;&gt;graph_format -->
<g id="edge7" class="edge">
<title>knowledge_graphs&#45;&gt;graph_format</title>
<path fill="none" stroke="white" d="M349.18,-266.93C363.52,-272.18 378.26,-279.86 389,-291 470.86,-375.87 481.52,-525.81 481.8,-594.63"/>
<polygon fill="white" stroke="white" points="478.31,-594.2 481.77,-604.21 485.31,-594.23 478.31,-594.2"/>
</g>
<!-- shorts_format -->
<g id="node8" class="node">
<title>shorts_format</title>
<path fill="#f06292" stroke="black" d="M739.05,-651.53C739.05,-654.05 720.84,-656.09 698.42,-656.09 676.01,-656.09 657.8,-654.05 657.8,-651.53 657.8,-651.53 657.8,-610.47 657.8,-610.47 657.8,-607.95 676.01,-605.91 698.42,-605.91 720.84,-605.91 739.05,-607.95 739.05,-610.47 739.05,-610.47 739.05,-651.53 739.05,-651.53"/>
<path fill="none" stroke="black" d="M739.05,-651.53C739.05,-649.01 720.84,-646.97 698.42,-646.97 676.01,-646.97 657.8,-649.01 657.8,-651.53"/>
<text xml:space="preserve" text-anchor="middle" x="698.42" y="-633.85" font-family="Arial" font-size="12.00">TikTok&#45;Style</text>
<text xml:space="preserve" text-anchor="middle" x="698.42" y="-619.6" font-family="Arial" font-size="12.00">Shorts</text>
</g>
<!-- raw_format&#45;&gt;shorts_format -->
<g id="edge8" class="edge">
<title>raw_format&#45;&gt;shorts_format</title>
<path fill="none" stroke="white" d="M511.37,-748.94C546.9,-726.42 608.13,-687.6 650.6,-660.68"/>
<polygon fill="white" stroke="white" points="652.31,-663.74 658.88,-655.43 648.56,-657.83 652.31,-663.74"/>
<text xml:space="preserve" text-anchor="middle" x="561.5" y="-733.03" font-family="Arial" font-size="10.00" fill="white">combine</text>
</g>
<!-- api_access -->
<g id="node11" class="node">
<title>api_access</title>
<polygon fill="#66bb6a" stroke="black" points="767.82,-372 733.12,-401.8 663.72,-401.8 629.02,-372 663.72,-342.2 733.12,-342.2 767.82,-372"/>
<text xml:space="preserve" text-anchor="middle" x="698.42" y="-374.85" font-family="Arial" font-size="12.00">JSON API</text>
<text xml:space="preserve" text-anchor="middle" x="698.42" y="-360.6" font-family="Arial" font-size="12.00">(Developers)</text>
</g>
<!-- raw_format&#45;&gt;api_access -->
<g id="edge13" class="edge">
<title>raw_format&#45;&gt;api_access</title>
<path fill="none" stroke="white" d="M509.6,-743.36C512.44,-740.07 515.08,-736.59 517.25,-733 544.84,-687.46 577.02,-556.15 587.75,-504 591.94,-483.64 585.13,-427.52 597.75,-411 605.99,-400.21 617.64,-392.41 630.09,-386.76"/>
<polygon fill="white" stroke="white" points="631.3,-390.05 639.27,-383.07 628.69,-383.55 631.3,-390.05"/>
</g>
<!-- distilled_format&#45;&gt;shorts_format -->
<g id="edge9" class="edge">
<title>distilled_format&#45;&gt;shorts_format</title>
<path fill="none" stroke="white" d="M511.81,-689.83C546.35,-678.88 604.73,-660.38 646.8,-647.04"/>
<polygon fill="white" stroke="white" points="647.74,-650.42 656.22,-644.06 645.63,-643.75 647.74,-650.42"/>
</g>
<!-- distilled_format&#45;&gt;api_access -->
<g id="edge14" class="edge">
<title>distilled_format&#45;&gt;api_access</title>
<path fill="none" stroke="white" d="M510.08,-675.62C512.83,-672.29 515.32,-668.73 517.25,-665 539.64,-621.79 521.58,-603.7 535.25,-557 555.08,-489.26 547.06,-460.12 597.75,-411 607.5,-401.55 619.8,-394.32 632.4,-388.81"/>
<polygon fill="white" stroke="white" points="633.61,-392.1 641.6,-385.14 631.02,-385.6 633.61,-392.1"/>
</g>
<!-- graph_format&#45;&gt;shorts_format -->
<g id="edge10" class="edge">
<title>graph_format&#45;&gt;shorts_format</title>
<path fill="none" stroke="white" d="M517.35,-631C552.17,-631 606.37,-631 646.22,-631"/>
<polygon fill="white" stroke="white" points="646.05,-634.5 656.05,-631 646.05,-627.5 646.05,-634.5"/>
</g>
<!-- graph_format&#45;&gt;api_access -->
<g id="edge15" class="edge">
<title>graph_format&#45;&gt;api_access</title>
<path fill="none" stroke="white" d="M484.07,-605.65C487.45,-546.35 499.3,-401.41 535.25,-372 562.66,-349.58 602.29,-349.19 635.51,-354.59"/>
<polygon fill="white" stroke="white" points="634.54,-357.98 645.01,-356.35 635.81,-351.09 634.54,-357.98"/>
</g>
<!-- analytics_sales -->
<g id="node19" class="node">
<title>analytics_sales</title>
<polygon fill="#ffeaa7" stroke="black" points="769.79,-180.43 769.79,-203.57 727.98,-219.94 668.86,-219.94 627.05,-203.57 627.05,-180.43 668.86,-164.06 727.98,-164.06 769.79,-180.43"/>
<text xml:space="preserve" text-anchor="middle" x="698.42" y="-194.85" font-family="Arial" font-size="12.00">Data Analytics</text>
<text xml:space="preserve" text-anchor="middle" x="698.42" y="-180.6" font-family="Arial" font-size="12.00">Licensing</text>
</g>
<!-- graph_format&#45;&gt;analytics_sales -->
<g id="edge23" class="edge">
<title>graph_format&#45;&gt;analytics_sales</title>
<path fill="none" stroke="white" d="M484.56,-605.76C489.21,-542.65 504,-379.98 535.25,-337 550.8,-315.61 572.76,-330.79 587.75,-309 608.06,-279.48 575.5,-257.09 597.75,-229 603.87,-221.27 611.77,-215.16 620.45,-210.32"/>
<polygon fill="white" stroke="white" points="621.72,-213.6 629.16,-206.05 618.64,-207.31 621.72,-213.6"/>
<text xml:space="preserve" text-anchor="middle" x="561.5" y="-339.5" font-family="Arial" font-size="10.00" fill="white">license</text>
</g>
<!-- web_platform -->
<g id="node9" class="node">
<title>web_platform</title>
<polygon fill="#42a5f5" stroke="black" points="778.85,-528 738.63,-557.8 658.21,-557.8 618,-528 658.21,-498.2 738.63,-498.2 778.85,-528"/>
<text xml:space="preserve" text-anchor="middle" x="698.42" y="-530.85" font-family="Arial" font-size="12.00">Web Viewer</text>
<text xml:space="preserve" text-anchor="middle" x="698.42" y="-516.6" font-family="Arial" font-size="12.00">(GitHub Pages)</text>
</g>
<!-- shorts_format&#45;&gt;web_platform -->
<g id="edge11" class="edge">
<title>shorts_format&#45;&gt;web_platform</title>
<path fill="none" stroke="white" d="M698.42,-605.68C698.42,-593.68 698.42,-581.68 698.42,-569.68"/>
<polygon fill="white" stroke="white" points="701.92,-569.69 698.42,-559.69 694.92,-569.69 701.92,-569.69"/>
</g>
<!-- social_platforms -->
<g id="node10" class="node">
<title>social_platforms</title>
<polygon fill="#ff7043" stroke="black" points="791.09,-450 744.76,-479.8 652.09,-479.8 605.75,-450 652.09,-420.2 744.76,-420.2 791.09,-450"/>
<text xml:space="preserve" text-anchor="middle" x="698.42" y="-452.85" font-family="Arial" font-size="12.00">Social Media</text>
<text xml:space="preserve" text-anchor="middle" x="698.42" y="-438.6" font-family="Arial" font-size="12.00">(TikTok/Instagram)</text>
</g>
<!-- shorts_format&#45;&gt;social_platforms -->
<g id="edge12" class="edge">
<title>shorts_format&#45;&gt;social_platforms</title>
<path fill="none" stroke="white" d="M657.61,-629.94C624.66,-626.67 580.17,-616.25 557.5,-585 534.79,-553.7 534.99,-529.44 557.5,-498 569.81,-480.81 588.64,-469.7 608.56,-462.55"/>
<polygon fill="white" stroke="white" points="609.5,-465.92 617.94,-459.53 607.35,-459.26 609.5,-465.92"/>
</g>
<!-- local_citizens -->
<g id="node12" class="node">
<title>local_citizens</title>
<polygon fill="#ffcc02" stroke="black" points="972.09,-577.5 902.09,-541 972.09,-504.5 1042.09,-541 972.09,-577.5"/>
<text xml:space="preserve" text-anchor="middle" x="972.09" y="-543.85" font-family="Arial" font-size="12.00">Scranton</text>
<text xml:space="preserve" text-anchor="middle" x="972.09" y="-529.6" font-family="Arial" font-size="12.00">Residents</text>
</g>
<!-- web_platform&#45;&gt;local_citizens -->
<g id="edge16" class="edge">
<title>web_platform&#45;&gt;local_citizens</title>
<path fill="none" stroke="white" d="M774.74,-531.6C812.45,-533.41 857.98,-535.59 895.71,-537.39"/>
<polygon fill="white" stroke="white" points="895.48,-540.89 905.63,-537.87 895.81,-533.89 895.48,-540.89"/>
<text xml:space="preserve" text-anchor="middle" x="831.59" y="-549.78" font-family="Arial" font-size="10.00" fill="white">engage</text>
<text xml:space="preserve" text-anchor="middle" x="831.59" y="-537.78" font-family="Arial" font-size="10.00" fill="white">locally</text>
</g>
<!-- mobile_users -->
<g id="node13" class="node">
<title>mobile_users</title>
<polygon fill="#ff6b6b" stroke="black" points="972.09,-486.5 886.34,-450 972.09,-413.5 1057.84,-450 972.09,-486.5"/>
<text xml:space="preserve" text-anchor="middle" x="972.09" y="-452.85" font-family="Arial" font-size="12.00">Mobile News</text>
<text xml:space="preserve" text-anchor="middle" x="972.09" y="-438.6" font-family="Arial" font-size="12.00">Consumers</text>
</g>
<!-- social_platforms&#45;&gt;mobile_users -->
<g id="edge17" class="edge">
<title>social_platforms&#45;&gt;mobile_users</title>
<path fill="none" stroke="white" d="M791.78,-450C818.29,-450 847.28,-450 874.07,-450"/>
<polygon fill="white" stroke="white" points="873.89,-453.5 883.89,-450 873.89,-446.5 873.89,-453.5"/>
<text xml:space="preserve" text-anchor="middle" x="831.59" y="-464.5" font-family="Arial" font-size="10.00" fill="white">reach</text>
<text xml:space="preserve" text-anchor="middle" x="831.59" y="-452.5" font-family="Arial" font-size="10.00" fill="white">globally</text>
</g>
<!-- social_revenue -->
<g id="node16" class="node">
<title>social_revenue</title>
<polygon fill="#ffb74d" stroke="black" points="774.96,-254.43 774.96,-277.57 730.12,-293.94 666.72,-293.94 621.89,-277.57 621.89,-254.43 666.72,-238.06 730.12,-238.06 774.96,-254.43"/>
<text xml:space="preserve" text-anchor="middle" x="698.42" y="-268.85" font-family="Arial" font-size="12.00">Social Media</text>
<text xml:space="preserve" text-anchor="middle" x="698.42" y="-254.6" font-family="Arial" font-size="12.00">Revenue Share</text>
</g>
<!-- social_platforms&#45;&gt;social_revenue -->
<g id="edge20" class="edge">
<title>social_platforms&#45;&gt;social_revenue</title>
<path fill="none" stroke="white" d="M621.72,-439.22C600.02,-432.23 578.74,-420.77 565.57,-402 536.18,-360.13 591.06,-319.11 638.95,-293.26"/>
<polygon fill="white" stroke="white" points="640.46,-296.42 647.69,-288.68 637.21,-290.22 640.46,-296.42"/>
<text xml:space="preserve" text-anchor="middle" x="561.5" y="-392.5" font-family="Arial" font-size="10.00" fill="white">generate</text>
</g>
<!-- civic_analysts -->
<g id="node14" class="node">
<title>civic_analysts</title>
<polygon fill="#4ecdc4" stroke="black" points="972.09,-304.5 876.59,-268 972.09,-231.5 1067.59,-268 972.09,-304.5"/>
<text xml:space="preserve" text-anchor="middle" x="972.09" y="-270.85" font-family="Arial" font-size="12.00">Data Analysts</text>
<text xml:space="preserve" text-anchor="middle" x="972.09" y="-256.6" font-family="Arial" font-size="12.00">&amp; Researchers</text>
</g>
<!-- api_access&#45;&gt;civic_analysts -->
<g id="edge18" class="edge">
<title>api_access&#45;&gt;civic_analysts</title>
<path fill="none" stroke="white" d="M747.05,-353.77C793.27,-336.07 863.49,-309.19 912.98,-290.25"/>
<polygon fill="white" stroke="white" points="914.02,-293.6 922.1,-286.75 911.51,-287.06 914.02,-293.6"/>
<text xml:space="preserve" text-anchor="middle" x="831.59" y="-343.82" font-family="Arial" font-size="10.00" fill="white">provide</text>
<text xml:space="preserve" text-anchor="middle" x="831.59" y="-331.82" font-family="Arial" font-size="10.00" fill="white">data</text>
</g>
<!-- developers -->
<g id="node15" class="node">
<title>developers</title>
<polygon fill="#95e1d3" stroke="black" points="972.09,-395.5 872.09,-359 972.09,-322.5 1072.09,-359 972.09,-395.5"/>
<text xml:space="preserve" text-anchor="middle" x="972.09" y="-361.85" font-family="Arial" font-size="12.00">API Consumers</text>
<text xml:space="preserve" text-anchor="middle" x="972.09" y="-347.6" font-family="Arial" font-size="12.00">&amp; Integrators</text>
</g>
<!-- api_access&#45;&gt;developers -->
<g id="edge19" class="edge">
<title>api_access&#45;&gt;developers</title>
<path fill="none" stroke="white" d="M764.84,-368.87C796.65,-367.35 835.57,-365.49 871,-363.79"/>
<polygon fill="white" stroke="white" points="871.04,-367.29 880.86,-363.32 870.7,-360.3 871.04,-367.29"/>
<text xml:space="preserve" text-anchor="middle" x="831.59" y="-381.16" font-family="Arial" font-size="10.00" fill="white">enable</text>
<text xml:space="preserve" text-anchor="middle" x="831.59" y="-369.16" font-family="Arial" font-size="10.00" fill="white">integration</text>
</g>
<!-- api_subscriptions -->
<g id="node17" class="node">
<title>api_subscriptions</title>
<polygon fill="#a1c181" stroke="black" points="757.74,-32.43 757.74,-55.57 722.99,-71.94 673.85,-71.94 639.11,-55.57 639.11,-32.43 673.85,-16.06 722.99,-16.06 757.74,-32.43"/>
<text xml:space="preserve" text-anchor="middle" x="698.42" y="-46.85" font-family="Arial" font-size="12.00">API Access</text>
<text xml:space="preserve" text-anchor="middle" x="698.42" y="-32.6" font-family="Arial" font-size="12.00">Fees</text>
</g>
<!-- api_access&#45;&gt;api_subscriptions -->
<g id="edge21" class="edge">
<title>api_access&#45;&gt;api_subscriptions</title>
<path fill="none" stroke="white" d="M640.21,-361.85C609.73,-353.16 575.26,-337.19 558.07,-308 532.08,-263.88 564.74,-120.15 597.75,-81 605.87,-71.37 616.74,-64.24 628.33,-58.97"/>
<polygon fill="white" stroke="white" points="629.28,-62.36 637.24,-55.37 626.66,-55.87 629.28,-62.36"/>
<text xml:space="preserve" text-anchor="middle" x="561.5" y="-298.5" font-family="Arial" font-size="10.00" fill="white">subscription</text>
</g>
<!-- civic_contracts -->
<g id="node18" class="node">
<title>civic_contracts</title>
<polygon fill="#c7ceea" stroke="black" points="750.28,-106.43 750.28,-129.57 719.9,-145.94 676.94,-145.94 646.57,-129.57 646.57,-106.43 676.94,-90.06 719.9,-90.06 750.28,-106.43"/>
<text xml:space="preserve" text-anchor="middle" x="698.42" y="-120.85" font-family="Arial" font-size="12.00">Municipal</text>
<text xml:space="preserve" text-anchor="middle" x="698.42" y="-106.6" font-family="Arial" font-size="12.00">Contracts</text>
</g>
<!-- civic_analysts&#45;&gt;civic_contracts -->
<g id="edge22" class="edge">
<title>civic_analysts&#45;&gt;civic_contracts</title>
<path fill="none" stroke="white" d="M939.13,-243.82C905.56,-219.2 850.58,-181.05 799.09,-155 785.58,-148.16 770.48,-141.9 756.21,-136.56"/>
<polygon fill="white" stroke="white" points="757.51,-133.31 746.92,-133.17 755.11,-139.89 757.51,-133.31"/>
<text xml:space="preserve" text-anchor="middle" x="831.59" y="-188.08" font-family="Arial" font-size="10.00" fill="white">consulting</text>
</g>
<!-- social_revenue&#45;&gt;web_platform -->
<g id="edge24" class="edge">
<title>social_revenue&#45;&gt;web_platform</title>
<path fill="none" stroke="#ffd700" stroke-dasharray="5,2" d="M649.24,-287.88C612.78,-307.82 570.17,-340.9 574.95,-385 580.04,-432.05 566.96,-453.07 597.75,-489 605.28,-497.79 615.04,-504.61 625.51,-509.9"/>
<polygon fill="#ffd700" stroke="#ffd700" points="623.79,-512.96 634.34,-513.89 626.67,-506.58 623.79,-512.96"/>
<text xml:space="preserve" text-anchor="middle" x="561.5" y="-375.5" font-family="Arial" font-size="10.00" fill="white">fund</text>
</g>
<!-- api_subscriptions&#45;&gt;scranton_news -->
<g id="edge25" class="edge">
<title>api_subscriptions&#45;&gt;scranton_news</title>
<path fill="none" stroke="#ffd700" stroke-dasharray="5,2" d="M645.89,-59.12C555.87,-86.26 364.97,-147.08 211.75,-218 181.19,-232.15 148.28,-251.24 123.68,-266.36"/>
<polygon fill="#ffd700" stroke="#ffd700" points="121.95,-263.31 115.29,-271.56 125.64,-269.26 121.95,-263.31"/>
<text xml:space="preserve" text-anchor="middle" x="412.75" y="-144.15" font-family="Arial" font-size="10.00" fill="white">sustain</text>
</g>
<!-- civic_contracts&#45;&gt;knowledge_graphs -->
<g id="edge26" class="edge">
<title>civic_contracts&#45;&gt;knowledge_graphs</title>
<path fill="none" stroke="#ffd700" stroke-dasharray="5,2" d="M652.87,-133.5C579.68,-158.98 434.24,-209.59 355.15,-237.11"/>
<polygon fill="#ffd700" stroke="#ffd700" points="354.17,-233.75 345.88,-240.34 356.47,-240.36 354.17,-233.75"/>
<text xml:space="preserve" text-anchor="middle" x="481.88" y="-209.92" font-family="Arial" font-size="10.00" fill="white">enhance</text>
</g>
<!-- analytics_sales&#45;&gt;sentiment -->
<g id="edge27" class="edge">
<title>analytics_sales&#45;&gt;sentiment</title>
<path fill="none" stroke="#ffd700" stroke-dasharray="5,2" d="M643.31,-210.29C566.83,-236.13 428.09,-283.01 352.82,-308.45"/>
<polygon fill="#ffd700" stroke="#ffd700" points="351.98,-305.04 343.62,-311.55 354.22,-311.67 351.98,-305.04"/>
<text xml:space="preserve" text-anchor="middle" x="481.88" y="-281.33" font-family="Arial" font-size="10.00" fill="white">improve</text>
</g>
</g>
</svg>
