<?xml version="1.0" encoding="UTF-8" standalone="no"?>
<!DOCTYPE svg PUBLIC "-//W3C//DTD SVG 1.1//EN"
 "http://www.w3.org/Graphics/SVG/1.1/DTD/svg11.dtd">
<!-- Generated by graphviz version 13.0.1 (20250615.1724)
 -->
<!-- Title: ScrantennaArchitecture Pages: 1 -->
<svg width="2179pt" height="649pt"
 viewBox="0.00 0.00 2179.00 649.00" xmlns="http://www.w3.org/2000/svg" xmlns:xlink="http://www.w3.org/1999/xlink">
<g id="graph0" class="graph" transform="scale(1 1) rotate(0) translate(4 645.13)">
<title>ScrantennaArchitecture</title>
<polygon fill="#1a1a1a" stroke="none" points="-4,4 -4,-645.13 2175,-645.13 2175,4 -4,4"/>
<g id="clust1" class="cluster">
<title>cluster_sources</title>
<polygon fill="#2d2d2d" stroke="black" points="8,-557.38 8,-633.13 470,-633.13 470,-557.38 8,-557.38"/>
<text xml:space="preserve" text-anchor="middle" x="239" y="-615.83" font-family="Arial" font-size="14.00" fill="white">DATA SOURCES</text>
</g>
<g id="clust2" class="cluster">
<title>cluster_aggregation</title>
<polygon fill="#2d2d2d" stroke="black" points="286,-8 286,-549.38 469,-549.38 469,-8 286,-8"/>
<text xml:space="preserve" text-anchor="middle" x="377.5" y="-532.08" font-family="Arial" font-size="14.00" fill="white">AGGREGATION PIPELINE</text>
</g>
<g id="clust3" class="cluster">
<title>cluster_outputs</title>
<polygon fill="#2d2d2d" stroke="black" points="943,-299.37 943,-383.12 1473,-383.12 1473,-299.37 943,-299.37"/>
<text xml:space="preserve" text-anchor="middle" x="1208" y="-365.82" font-family="Arial" font-size="14.00" fill="white">CONTENT FORMATS</text>
</g>
<g id="clust4" class="cluster">
<title>cluster_publishing</title>
<polygon fill="#2d2d2d" stroke="black" points="1058,-95.13 1058,-291.37 1561,-291.37 1561,-95.13 1058,-95.13"/>
<text xml:space="preserve" text-anchor="middle" x="1309.5" y="-274.07" font-family="Arial" font-size="14.00" fill="white">PUBLISHING CHANNELS</text>
</g>
<g id="clust5" class="cluster">
<title>cluster_audiences</title>
<polygon fill="#2d2d2d" stroke="black" points="1569,-89.25 1569,-193 2163,-193 2163,-89.25 1569,-89.25"/>
<text xml:space="preserve" text-anchor="middle" x="1866" y="-175.7" font-family="Arial" font-size="14.00" fill="white">TARGET AUDIENCES</text>
</g>
<g id="clust6" class="cluster">
<title>cluster_monetization</title>
<polygon fill="#2d2d2d" stroke="black" points="477,-201 477,-289.74 980,-289.74 980,-201 477,-201"/>
<text xml:space="preserve" text-anchor="middle" x="728.5" y="-272.44" font-family="Arial" font-size="14.00" fill="white">MONETIZATION STRATEGIES</text>
</g>
<!-- newsapi -->
<g id="node1" class="node">
<title>newsapi</title>
<polygon fill="#4caf50" stroke="black" points="462.38,-601.38 367.62,-601.38 367.62,-565.38 462.38,-565.38 462.38,-601.38"/>
<text xml:space="preserve" text-anchor="middle" x="415" y="-585.88" font-family="Arial" font-size="10.00">NewsAPI</text>
<text xml:space="preserve" text-anchor="middle" x="415" y="-573.88" font-family="Arial" font-size="10.00">(Scranton Stories)</text>
</g>
<!-- ingest -->
<g id="node5" class="node">
<title>ingest</title>
<ellipse fill="#667eea" stroke="black" cx="388" cy="-495.01" rx="72.83" ry="22.63"/>
<text xml:space="preserve" text-anchor="middle" x="388" y="-497.51" font-family="Arial" font-size="10.00">News Ingestion</text>
<text xml:space="preserve" text-anchor="middle" x="388" y="-485.51" font-family="Arial" font-size="10.00">(ingest_news.ipynb)</text>
</g>
<!-- newsapi&#45;&gt;ingest -->
<g id="edge1" class="edge">
<title>newsapi&#45;&gt;ingest</title>
<path fill="none" stroke="white" d="M414.23,-565.07C414.23,-565.07 414.23,-527.92 414.23,-527.92"/>
<polygon fill="white" stroke="white" points="417.73,-527.92 414.23,-517.92 410.73,-527.92 417.73,-527.92"/>
<text xml:space="preserve" text-anchor="middle" x="405.6" y="-548.65" font-family="Arial" font-size="8.00" fill="white">fetch</text>
</g>
<!-- openai -->
<g id="node2" class="node">
<title>openai</title>
<polygon fill="#ff9800" stroke="black" points="349.75,-601.38 260.25,-601.38 260.25,-565.38 349.75,-565.38 349.75,-601.38"/>
<text xml:space="preserve" text-anchor="middle" x="305" y="-585.88" font-family="Arial" font-size="10.00">OpenAI GPT</text>
<text xml:space="preserve" text-anchor="middle" x="305" y="-573.88" font-family="Arial" font-size="10.00">(Text Distillation)</text>
</g>
<!-- distill -->
<g id="node6" class="node">
<title>distill</title>
<ellipse fill="#f093fb" stroke="black" cx="391" cy="-413.75" rx="43.66" ry="22.63"/>
<text xml:space="preserve" text-anchor="middle" x="391" y="-416.25" font-family="Arial" font-size="10.00">Intelligent</text>
<text xml:space="preserve" text-anchor="middle" x="391" y="-404.25" font-family="Arial" font-size="10.00">Distillation</text>
</g>
<!-- openai&#45;&gt;distill -->
<g id="edge2" class="edge">
<title>openai&#45;&gt;distill</title>
<path fill="none" stroke="white" d="M287.71,-564.93C287.71,-521.03 287.71,-414 287.71,-414 287.71,-414 335.38,-414 335.38,-414"/>
<polygon fill="white" stroke="white" points="335.38,-417.5 345.38,-414 335.38,-410.5 335.38,-417.5"/>
<text xml:space="preserve" text-anchor="middle" x="273.83" y="-467.78" font-family="Arial" font-size="8.00" fill="white">process</text>
</g>
<!-- free_llm -->
<g id="node3" class="node">
<title>free_llm</title>
<polygon fill="#9c27b0" stroke="black" points="129.75,-601.38 16.25,-601.38 16.25,-565.38 129.75,-565.38 129.75,-601.38"/>
<text xml:space="preserve" text-anchor="middle" x="73" y="-585.88" font-family="Arial" font-size="10.00">Free LLMs</text>
<text xml:space="preserve" text-anchor="middle" x="73" y="-573.88" font-family="Arial" font-size="10.00">(Ollama/HuggingFace)</text>
</g>
<!-- entities -->
<g id="node8" class="node">
<title>entities</title>
<ellipse fill="#43e97b" stroke="black" cx="391" cy="-233.5" rx="42.6" ry="22.63"/>
<text xml:space="preserve" text-anchor="middle" x="391" y="-236" font-family="Arial" font-size="10.00">Entity</text>
<text xml:space="preserve" text-anchor="middle" x="391" y="-224" font-family="Arial" font-size="10.00">Extraction</text>
</g>
<!-- free_llm&#45;&gt;entities -->
<g id="edge3" class="edge">
<title>free_llm&#45;&gt;entities</title>
<path fill="none" stroke="white" d="M73,-565.17C73,-492.34 73,-226 73,-226 73,-226 338.89,-226 338.89,-226"/>
<polygon fill="white" stroke="white" points="338.89,-229.5 348.89,-226 338.89,-222.5 338.89,-229.5"/>
<text xml:space="preserve" text-anchor="middle" x="49.75" y="-264.79" font-family="Arial" font-size="8.00" fill="white">extract (free)</text>
</g>
<!-- spacy -->
<g id="node4" class="node">
<title>spacy</title>
<polygon fill="#2196f3" stroke="black" points="242.38,-601.38 147.62,-601.38 147.62,-565.38 242.38,-565.38 242.38,-601.38"/>
<text xml:space="preserve" text-anchor="middle" x="195" y="-585.88" font-family="Arial" font-size="10.00">SpaCy NLP</text>
<text xml:space="preserve" text-anchor="middle" x="195" y="-573.88" font-family="Arial" font-size="10.00">(Entity Extraction)</text>
</g>
<!-- spacy&#45;&gt;entities -->
<g id="edge4" class="edge">
<title>spacy&#45;&gt;entities</title>
<path fill="none" stroke="white" d="M195,-564.98C195,-493.86 195,-241 195,-241 195,-241 338.88,-241 338.88,-241"/>
<polygon fill="white" stroke="white" points="338.88,-244.5 348.88,-241 338.88,-237.5 338.88,-244.5"/>
<text xml:space="preserve" text-anchor="middle" x="183" y="-333.2" font-family="Arial" font-size="8.00" fill="white">extract</text>
</g>
<!-- ingest&#45;&gt;distill -->
<g id="edge5" class="edge">
<title>ingest&#45;&gt;distill</title>
<path fill="none" stroke="white" d="M391,-471.94C391,-471.94 391,-448.39 391,-448.39"/>
<polygon fill="white" stroke="white" points="394.5,-448.39 391,-438.39 387.5,-448.39 394.5,-448.39"/>
<text xml:space="preserve" text-anchor="middle" x="378.62" y="-462.31" font-family="Arial" font-size="8.00" fill="white">articles</text>
</g>
<!-- raw_news -->
<g id="node11" class="node">
<title>raw_news</title>
<path fill="#ffecd2" stroke="black" d="M1464.75,-347.37C1464.75,-349.58 1448.73,-351.37 1429,-351.37 1409.27,-351.37 1393.25,-349.58 1393.25,-347.37 1393.25,-347.37 1393.25,-311.37 1393.25,-311.37 1393.25,-309.17 1409.27,-307.37 1429,-307.37 1448.73,-307.37 1464.75,-309.17 1464.75,-311.37 1464.75,-311.37 1464.75,-347.37 1464.75,-347.37"/>
<path fill="none" stroke="black" d="M1464.75,-347.37C1464.75,-345.17 1448.73,-343.37 1429,-343.37 1409.27,-343.37 1393.25,-345.17 1393.25,-347.37"/>
<text xml:space="preserve" text-anchor="middle" x="1429" y="-331.87" font-family="Arial" font-size="10.00">Raw Articles</text>
<text xml:space="preserve" text-anchor="middle" x="1429" y="-319.87" font-family="Arial" font-size="10.00">(JSON)</text>
</g>
<!-- ingest&#45;&gt;raw_news -->
<g id="edge10" class="edge">
<title>ingest&#45;&gt;raw_news</title>
<path fill="none" stroke="white" d="M461.2,-495C698.15,-495 1429,-495 1429,-495 1429,-495 1429,-363.23 1429,-363.23"/>
<polygon fill="white" stroke="white" points="1432.5,-363.22 1429,-353.23 1425.5,-363.23 1432.5,-363.22"/>
</g>
<!-- sentiment -->
<g id="node7" class="node">
<title>sentiment</title>
<ellipse fill="#4facfe" stroke="black" cx="391" cy="-329.37" rx="42.6" ry="22.63"/>
<text xml:space="preserve" text-anchor="middle" x="391" y="-331.87" font-family="Arial" font-size="10.00">Sentiment</text>
<text xml:space="preserve" text-anchor="middle" x="391" y="-319.87" font-family="Arial" font-size="10.00">Analysis</text>
</g>
<!-- distill&#45;&gt;sentiment -->
<g id="edge6" class="edge">
<title>distill&#45;&gt;sentiment</title>
<path fill="none" stroke="white" d="M391,-390.7C391,-390.7 391,-363.92 391,-363.92"/>
<polygon fill="white" stroke="white" points="394.5,-363.92 391,-353.92 387.5,-363.92 394.5,-363.92"/>
<text xml:space="preserve" text-anchor="middle" x="384.62" y="-379.46" font-family="Arial" font-size="8.00" fill="white">text</text>
</g>
<!-- distilled_text -->
<g id="node12" class="node">
<title>distilled_text</title>
<path fill="#ff8a80" stroke="black" d="M1375.38,-347.37C1375.38,-349.58 1358.17,-351.37 1337,-351.37 1315.83,-351.37 1298.62,-349.58 1298.62,-347.37 1298.62,-347.37 1298.62,-311.37 1298.62,-311.37 1298.62,-309.17 1315.83,-307.37 1337,-307.37 1358.17,-307.37 1375.38,-309.17 1375.38,-311.37 1375.38,-311.37 1375.38,-347.37 1375.38,-347.37"/>
<path fill="none" stroke="black" d="M1375.38,-347.37C1375.38,-345.17 1358.17,-343.37 1337,-343.37 1315.83,-343.37 1298.62,-345.17 1298.62,-347.37"/>
<text xml:space="preserve" text-anchor="middle" x="1337" y="-331.87" font-family="Arial" font-size="10.00">Distilled Text</text>
<text xml:space="preserve" text-anchor="middle" x="1337" y="-319.87" font-family="Arial" font-size="10.00">(SVO Format)</text>
</g>
<!-- distill&#45;&gt;distilled_text -->
<g id="edge11" class="edge">
<title>distill&#45;&gt;distilled_text</title>
<path fill="none" stroke="white" d="M435.04,-414C621.58,-414 1337,-414 1337,-414 1337,-414 1337,-363.12 1337,-363.12"/>
<polygon fill="white" stroke="white" points="1340.5,-363.12 1337,-353.12 1333.5,-363.12 1340.5,-363.12"/>
</g>
<!-- sentiment&#45;&gt;entities -->
<g id="edge7" class="edge">
<title>sentiment&#45;&gt;entities</title>
<path fill="none" stroke="white" d="M405.2,-307.62C405.2,-307.62 405.2,-266.68 405.2,-266.68"/>
<polygon fill="white" stroke="white" points="408.7,-266.68 405.2,-256.68 401.7,-266.68 408.7,-266.68"/>
<text xml:space="preserve" text-anchor="middle" x="392.08" y="-289.3" font-family="Arial" font-size="8.00" fill="white">content</text>
</g>
<!-- sentiment_data -->
<g id="node13" class="node">
<title>sentiment_data</title>
<path fill="#82b1ff" stroke="black" d="M1281,-347.37C1281,-349.58 1259.93,-351.37 1234,-351.37 1208.07,-351.37 1187,-349.58 1187,-347.37 1187,-347.37 1187,-311.37 1187,-311.37 1187,-309.17 1208.07,-307.37 1234,-307.37 1259.93,-307.37 1281,-309.17 1281,-311.37 1281,-311.37 1281,-347.37 1281,-347.37"/>
<path fill="none" stroke="black" d="M1281,-347.37C1281,-345.17 1259.93,-343.37 1234,-343.37 1208.07,-343.37 1187,-345.17 1187,-347.37"/>
<text xml:space="preserve" text-anchor="middle" x="1234" y="-331.87" font-family="Arial" font-size="10.00">Sentiment Scores</text>
<text xml:space="preserve" text-anchor="middle" x="1234" y="-319.87" font-family="Arial" font-size="10.00">(VADER)</text>
</g>
<!-- sentiment&#45;&gt;sentiment_data -->
<g id="edge12" class="edge">
<title>sentiment&#45;&gt;sentiment_data</title>
<path fill="none" stroke="white" d="M376.8,-307.54C376.8,-304.29 376.8,-302 376.8,-302 376.8,-302 1201.22,-302 1201.22,-302 1201.22,-302 1201.22,-302.55 1201.22,-302.55"/>
<polygon fill="white" stroke="white" points="1197.72,-296.03 1201.22,-306.03 1204.72,-296.03 1197.72,-296.03"/>
</g>
<!-- knowledge -->
<g id="node9" class="node">
<title>knowledge</title>
<ellipse fill="#fa709a" stroke="black" cx="395" cy="-129.25" rx="65.94" ry="22.63"/>
<text xml:space="preserve" text-anchor="middle" x="395" y="-131.75" font-family="Arial" font-size="10.00">Knowledge Graph</text>
<text xml:space="preserve" text-anchor="middle" x="395" y="-119.75" font-family="Arial" font-size="10.00">Construction</text>
</g>
<!-- entities&#45;&gt;knowledge -->
<g id="edge8" class="edge">
<title>entities&#45;&gt;knowledge</title>
<path fill="none" stroke="white" d="M376.8,-211.9C376.8,-211.9 376.8,-162.7 376.8,-162.7"/>
<polygon fill="white" stroke="white" points="380.3,-162.7 376.8,-152.7 373.3,-162.7 380.3,-162.7"/>
<text xml:space="preserve" text-anchor="middle" x="364.42" y="-189.45" font-family="Arial" font-size="8.00" fill="white">entities</text>
</g>
<!-- shorts -->
<g id="node10" class="node">
<title>shorts</title>
<ellipse fill="#a8edea" stroke="black" cx="405" cy="-38.63" rx="44.72" ry="22.63"/>
<text xml:space="preserve" text-anchor="middle" x="405" y="-41.13" font-family="Arial" font-size="10.00">Shorts</text>
<text xml:space="preserve" text-anchor="middle" x="405" y="-29.13" font-family="Arial" font-size="10.00">Generation</text>
</g>
<!-- knowledge&#45;&gt;shorts -->
<g id="edge9" class="edge">
<title>knowledge&#45;&gt;shorts</title>
<path fill="none" stroke="white" d="M405,-106.85C405,-106.85 405,-73.23 405,-73.23"/>
<polygon fill="white" stroke="white" points="408.5,-73.23 405,-63.23 401.5,-73.23 408.5,-73.23"/>
<text xml:space="preserve" text-anchor="middle" x="392.62" y="-92.19" font-family="Arial" font-size="8.00" fill="white">graphs</text>
</g>
<!-- graph_viz -->
<g id="node14" class="node">
<title>graph_viz</title>
<path fill="#84fab0" stroke="black" d="M1049.25,-347.37C1049.25,-349.58 1027.18,-351.37 1000,-351.37 972.82,-351.37 950.75,-349.58 950.75,-347.37 950.75,-347.37 950.75,-311.37 950.75,-311.37 950.75,-309.17 972.82,-307.37 1000,-307.37 1027.18,-307.37 1049.25,-309.17 1049.25,-311.37 1049.25,-311.37 1049.25,-347.37 1049.25,-347.37"/>
<path fill="none" stroke="black" d="M1049.25,-347.37C1049.25,-345.17 1027.18,-343.37 1000,-343.37 972.82,-343.37 950.75,-345.17 950.75,-347.37"/>
<text xml:space="preserve" text-anchor="middle" x="1000" y="-331.87" font-family="Arial" font-size="10.00">Knowledge Graphs</text>
<text xml:space="preserve" text-anchor="middle" x="1000" y="-319.87" font-family="Arial" font-size="10.00">(SVG/DOT)</text>
</g>
<!-- knowledge&#45;&gt;graph_viz -->
<g id="edge13" class="edge">
<title>knowledge&#45;&gt;graph_viz</title>
<path fill="none" stroke="white" d="M443.39,-144.87C443.39,-193.18 443.39,-337 443.39,-337 443.39,-337 939.09,-337 939.09,-337"/>
<polygon fill="white" stroke="white" points="939.09,-340.5 949.09,-337 939.09,-333.5 939.09,-340.5"/>
</g>
<!-- shorts_data -->
<g id="node15" class="node">
<title>shorts_data</title>
<path fill="#b388ff" stroke="black" d="M1169.12,-347.37C1169.12,-349.58 1146.21,-351.37 1118,-351.37 1089.79,-351.37 1066.88,-349.58 1066.88,-347.37 1066.88,-347.37 1066.88,-311.37 1066.88,-311.37 1066.88,-309.17 1089.79,-307.37 1118,-307.37 1146.21,-307.37 1169.12,-309.17 1169.12,-311.37 1169.12,-311.37 1169.12,-347.37 1169.12,-347.37"/>
<path fill="none" stroke="black" d="M1169.12,-347.37C1169.12,-345.17 1146.21,-343.37 1118,-343.37 1089.79,-343.37 1066.88,-345.17 1066.88,-347.37"/>
<text xml:space="preserve" text-anchor="middle" x="1118" y="-331.87" font-family="Arial" font-size="10.00">TikTok&#45;Style Shorts</text>
<text xml:space="preserve" text-anchor="middle" x="1118" y="-319.87" font-family="Arial" font-size="10.00">(JSON+SVG)</text>
</g>
<!-- shorts&#45;&gt;shorts_data -->
<g id="edge14" class="edge">
<title>shorts&#45;&gt;shorts_data</title>
<path fill="none" stroke="white" d="M450.13,-39C597.89,-39 1057.8,-39 1057.8,-39 1057.8,-39 1057.8,-329 1057.8,-329 1057.8,-329 1058.66,-329 1058.66,-329"/>
<polygon fill="white" stroke="white" points="1054.91,-332.5 1064.91,-329 1054.91,-325.5 1054.91,-332.5"/>
</g>
<!-- api_endpoint -->
<g id="node19" class="node">
<title>api_endpoint</title>
<polygon fill="#96ceb4" stroke="black" points="1552.89,-233.5 1520.95,-259.62 1457.05,-259.62 1425.11,-233.5 1457.05,-207.37 1520.95,-207.37 1552.89,-233.5"/>
<text xml:space="preserve" text-anchor="middle" x="1489" y="-236" font-family="Arial" font-size="10.00">JSON API</text>
<text xml:space="preserve" text-anchor="middle" x="1489" y="-224" font-family="Arial" font-size="10.00">(Data Access)</text>
</g>
<!-- raw_news&#45;&gt;api_endpoint -->
<g id="edge18" class="edge">
<title>raw_news&#45;&gt;api_endpoint</title>
<path fill="none" stroke="white" d="M1451.54,-307.62C1451.54,-307.62 1451.54,-267.01 1451.54,-267.01"/>
<polygon fill="white" stroke="white" points="1455.04,-267.01 1451.54,-257.01 1448.04,-267.01 1455.04,-267.01"/>
<text xml:space="preserve" text-anchor="middle" x="1441.79" y="-289.47" font-family="Arial" font-size="8.00" fill="white">serve</text>
</g>
<!-- distilled_text&#45;&gt;api_endpoint -->
<g id="edge19" class="edge">
<title>distilled_text&#45;&gt;api_endpoint</title>
<path fill="none" stroke="white" d="M1337,-307.05C1337,-298.61 1337,-291 1337,-291 1337,-291 1444.93,-291 1444.93,-291 1444.93,-291 1444.93,-261.64 1444.93,-261.64"/>
<polygon fill="white" stroke="white" points="1448.43,-261.64 1444.93,-251.64 1441.43,-261.64 1448.43,-261.64"/>
</g>
<!-- sentiment_data&#45;&gt;api_endpoint -->
<g id="edge20" class="edge">
<title>sentiment_data&#45;&gt;api_endpoint</title>
<path fill="none" stroke="white" d="M1264.09,-307.43C1264.09,-296.67 1264.09,-286 1264.09,-286 1264.09,-286 1438.32,-286 1438.32,-286 1438.32,-286 1438.32,-256.4 1438.32,-256.4"/>
<polygon fill="white" stroke="white" points="1441.82,-256.4 1438.32,-246.4 1434.82,-256.4 1441.82,-256.4"/>
</g>
<!-- civic_contracts -->
<g id="node26" class="node">
<title>civic_contracts</title>
<polygon fill="#deb887" stroke="black" points="813.97,-223.35 813.97,-243.64 787.63,-257.99 750.37,-257.99 724.03,-243.64 724.03,-223.35 750.37,-209 787.63,-209 813.97,-223.35"/>
<text xml:space="preserve" text-anchor="middle" x="769" y="-236" font-family="Arial" font-size="10.00">Municipal</text>
<text xml:space="preserve" text-anchor="middle" x="769" y="-224" font-family="Arial" font-size="10.00">Contracts</text>
</g>
<!-- sentiment_data&#45;&gt;civic_contracts -->
<g id="edge28" class="edge">
<title>sentiment_data&#45;&gt;civic_contracts</title>
<path fill="none" stroke="white" d="M1215.43,-306.93C1215.43,-300.89 1215.43,-296 1215.43,-296 1215.43,-296 769,-296 769,-296 769,-296 769,-269.71 769,-269.71"/>
<polygon fill="white" stroke="white" points="772.5,-269.71 769,-259.71 765.5,-269.71 772.5,-269.71"/>
<text xml:space="preserve" text-anchor="middle" x="973.29" y="-298.15" font-family="Arial" font-size="8.00" fill="white">inform</text>
</g>
<!-- graph_viz&#45;&gt;api_endpoint -->
<g id="edge21" class="edge">
<title>graph_viz&#45;&gt;api_endpoint</title>
<path fill="none" stroke="white" d="M1010.45,-306.89C1010.45,-294.25 1010.45,-281 1010.45,-281 1010.45,-281 1431.72,-281 1431.72,-281 1431.72,-281 1431.72,-250.83 1431.72,-250.83"/>
<polygon fill="white" stroke="white" points="1435.22,-250.83 1431.72,-240.83 1428.22,-250.84 1435.22,-250.83"/>
</g>
<!-- analytics_licensing -->
<g id="node27" class="node">
<title>analytics_licensing</title>
<polygon fill="#f5deb3" stroke="black" points="705.82,-223.35 705.82,-243.64 680.15,-257.99 643.85,-257.99 618.18,-243.64 618.18,-223.35 643.85,-209 680.15,-209 705.82,-223.35"/>
<text xml:space="preserve" text-anchor="middle" x="662" y="-236" font-family="Arial" font-size="10.00">Analytics</text>
<text xml:space="preserve" text-anchor="middle" x="662" y="-224" font-family="Arial" font-size="10.00">Licensing</text>
</g>
<!-- graph_viz&#45;&gt;analytics_licensing -->
<g id="edge29" class="edge">
<title>graph_viz&#45;&gt;analytics_licensing</title>
<path fill="none" stroke="white" d="M950.49,-322C856.61,-322 662,-322 662,-322 662,-322 662,-269.66 662,-269.66"/>
<polygon fill="white" stroke="white" points="665.5,-269.66 662,-259.66 658.5,-269.66 665.5,-269.66"/>
<text xml:space="preserve" text-anchor="middle" x="768.08" y="-324.15" font-family="Arial" font-size="8.00" fill="white">license</text>
</g>
<!-- web_viewer -->
<g id="node16" class="node">
<title>web_viewer</title>
<polygon fill="#ff6b6b" stroke="black" points="1229.65,-233.5 1188.82,-259.62 1107.18,-259.62 1066.35,-233.5 1107.18,-207.37 1188.82,-207.37 1229.65,-233.5"/>
<text xml:space="preserve" text-anchor="middle" x="1148" y="-236" font-family="Arial" font-size="10.00">Web Shorts Viewer</text>
<text xml:space="preserve" text-anchor="middle" x="1148" y="-224" font-family="Arial" font-size="10.00">(index.html)</text>
</g>
<!-- shorts_data&#45;&gt;web_viewer -->
<g id="edge15" class="edge">
<title>shorts_data&#45;&gt;web_viewer</title>
<path fill="none" stroke="white" d="M1100.96,-307.14C1100.96,-307.14 1100.96,-267.46 1100.96,-267.46"/>
<polygon fill="white" stroke="white" points="1104.46,-267.46 1100.96,-257.46 1097.46,-267.46 1104.46,-267.46"/>
<text xml:space="preserve" text-anchor="middle" x="1093.46" y="-289.45" font-family="Arial" font-size="8.00" fill="white">load</text>
</g>
<!-- social_export -->
<g id="node18" class="node">
<title>social_export</title>
<polygon fill="#45b7d1" stroke="black" points="1406.81,-233.5 1366.91,-259.62 1287.09,-259.62 1247.19,-233.5 1287.09,-207.37 1366.91,-207.37 1406.81,-233.5"/>
<text xml:space="preserve" text-anchor="middle" x="1327" y="-236" font-family="Arial" font-size="10.00">Social Media</text>
<text xml:space="preserve" text-anchor="middle" x="1327" y="-224" font-family="Arial" font-size="10.00">(TikTok/Instagram)</text>
</g>
<!-- shorts_data&#45;&gt;social_export -->
<g id="edge17" class="edge">
<title>shorts_data&#45;&gt;social_export</title>
<path fill="none" stroke="white" d="M1135.04,-306.93C1135.04,-290.11 1135.04,-270 1135.04,-270 1135.04,-270 1255.64,-270 1255.64,-270 1255.64,-270 1255.64,-251.04 1255.64,-251.04"/>
<polygon fill="white" stroke="white" points="1259.14,-251.04 1255.64,-241.04 1252.14,-251.04 1259.14,-251.04"/>
<text xml:space="preserve" text-anchor="middle" x="1175.11" y="-272.15" font-family="Arial" font-size="8.00" fill="white">export</text>
</g>
<!-- github_pages -->
<g id="node17" class="node">
<title>github_pages</title>
<polygon fill="#4ecdc4" stroke="black" points="1216.79,-129.25 1182.39,-155.38 1113.61,-155.38 1079.21,-129.25 1113.61,-103.13 1182.39,-103.13 1216.79,-129.25"/>
<text xml:space="preserve" text-anchor="middle" x="1148" y="-131.75" font-family="Arial" font-size="10.00">GitHub Pages</text>
<text xml:space="preserve" text-anchor="middle" x="1148" y="-119.75" font-family="Arial" font-size="10.00">(Static Hosting)</text>
</g>
<!-- web_viewer&#45;&gt;github_pages -->
<g id="edge16" class="edge">
<title>web_viewer&#45;&gt;github_pages</title>
<path fill="none" stroke="white" d="M1148,-206.92C1148,-206.92 1148,-167.29 1148,-167.29"/>
<polygon fill="white" stroke="white" points="1151.5,-167.29 1148,-157.29 1144.5,-167.29 1151.5,-167.29"/>
<text xml:space="preserve" text-anchor="middle" x="1140.5" y="-189.26" font-family="Arial" font-size="8.00" fill="white">host</text>
</g>
<!-- local_residents -->
<g id="node20" class="node">
<title>local_residents</title>
<polygon fill="#ffeaa7" stroke="black" points="1637,-161.25 1576.75,-129.25 1637,-97.25 1697.25,-129.25 1637,-161.25"/>
<text xml:space="preserve" text-anchor="middle" x="1637" y="-131.75" font-family="Arial" font-size="10.00">Scranton</text>
<text xml:space="preserve" text-anchor="middle" x="1637" y="-119.75" font-family="Arial" font-size="10.00">Residents</text>
</g>
<!-- web_viewer&#45;&gt;local_residents -->
<g id="edge22" class="edge">
<title>web_viewer&#45;&gt;local_residents</title>
<path fill="none" stroke="white" d="M1223.22,-229.01C1223.22,-209.01 1223.22,-129 1223.22,-129 1223.22,-129 1564.88,-129 1564.88,-129"/>
<polygon fill="white" stroke="white" points="1564.88,-132.5 1574.88,-129 1564.88,-125.5 1564.88,-132.5"/>
<text xml:space="preserve" text-anchor="middle" x="1330.54" y="-131.15" font-family="Arial" font-size="8.00" fill="white">engage</text>
</g>
<!-- news_consumers -->
<g id="node21" class="node">
<title>news_consumers</title>
<polygon fill="#dda0dd" stroke="black" points="1788,-161.25 1715,-129.25 1788,-97.25 1861,-129.25 1788,-161.25"/>
<text xml:space="preserve" text-anchor="middle" x="1788" y="-131.75" font-family="Arial" font-size="10.00">Mobile News</text>
<text xml:space="preserve" text-anchor="middle" x="1788" y="-119.75" font-family="Arial" font-size="10.00">Consumers</text>
</g>
<!-- social_export&#45;&gt;news_consumers -->
<g id="edge23" class="edge">
<title>social_export&#45;&gt;news_consumers</title>
<path fill="none" stroke="white" d="M1327,-206.98C1327,-198.85 1327,-192 1327,-192 1327,-192 1788,-192 1788,-192 1788,-192 1788,-173.24 1788,-173.24"/>
<polygon fill="white" stroke="white" points="1791.5,-173.24 1788,-163.24 1784.5,-173.24 1791.5,-173.24"/>
<text xml:space="preserve" text-anchor="middle" x="1549.26" y="-194.15" font-family="Arial" font-size="8.00" fill="white">reach</text>
</g>
<!-- social_revenue -->
<g id="node24" class="node">
<title>social_revenue</title>
<polygon fill="#ffb6c1" stroke="black" points="971.65,-223.35 971.65,-243.64 930.85,-257.99 873.15,-257.99 832.35,-243.64 832.35,-223.35 873.15,-209 930.85,-209 971.65,-223.35"/>
<text xml:space="preserve" text-anchor="middle" x="902" y="-236" font-family="Arial" font-size="10.00">Social Media</text>
<text xml:space="preserve" text-anchor="middle" x="902" y="-224" font-family="Arial" font-size="10.00">Revenue Sharing</text>
</g>
<!-- social_export&#45;&gt;social_revenue -->
<g id="edge26" class="edge">
<title>social_export&#45;&gt;social_revenue</title>
<path fill="none" stroke="white" d="M1272.55,-250.36C1272.55,-257.85 1272.55,-265 1272.55,-265 1272.55,-265 961.2,-265 961.2,-265 961.2,-265 961.2,-259.29 961.2,-259.29"/>
<polygon fill="white" stroke="white" points="964.7,-259.29 961.2,-249.29 957.7,-259.29 964.7,-259.29"/>
<text xml:space="preserve" text-anchor="middle" x="1105.21" y="-267.15" font-family="Arial" font-size="8.00" fill="white">generate</text>
</g>
<!-- data_analysts -->
<g id="node22" class="node">
<title>data_analysts</title>
<polygon fill="#98d8c8" stroke="black" points="2092,-161.25 2029.5,-129.25 2092,-97.25 2154.5,-129.25 2092,-161.25"/>
<text xml:space="preserve" text-anchor="middle" x="2092" y="-131.75" font-family="Arial" font-size="10.00">Civic Data</text>
<text xml:space="preserve" text-anchor="middle" x="2092" y="-119.75" font-family="Arial" font-size="10.00">Analysts</text>
</g>
<!-- api_endpoint&#45;&gt;data_analysts -->
<g id="edge24" class="edge">
<title>api_endpoint&#45;&gt;data_analysts</title>
<path fill="none" stroke="white" d="M1543.04,-242C1691.05,-242 2092,-242 2092,-242 2092,-242 2092,-173.08 2092,-173.08"/>
<polygon fill="white" stroke="white" points="2095.5,-173.08 2092,-163.08 2088.5,-173.08 2095.5,-173.08"/>
<text xml:space="preserve" text-anchor="middle" x="1838.86" y="-244.15" font-family="Arial" font-size="8.00" fill="white">provide</text>
</g>
<!-- developers -->
<g id="node23" class="node">
<title>developers</title>
<polygon fill="#f7dc6f" stroke="black" points="1945,-161.25 1878.75,-129.25 1945,-97.25 2011.25,-129.25 1945,-161.25"/>
<text xml:space="preserve" text-anchor="middle" x="1945" y="-131.75" font-family="Arial" font-size="10.00">API</text>
<text xml:space="preserve" text-anchor="middle" x="1945" y="-119.75" font-family="Arial" font-size="10.00">Consumers</text>
</g>
<!-- api_endpoint&#45;&gt;developers -->
<g id="edge25" class="edge">
<title>api_endpoint&#45;&gt;developers</title>
<path fill="none" stroke="white" d="M1543.1,-225C1663.89,-225 1945,-225 1945,-225 1945,-225 1945,-173.18 1945,-173.18"/>
<polygon fill="white" stroke="white" points="1948.5,-173.18 1945,-163.18 1941.5,-173.18 1948.5,-173.18"/>
<text xml:space="preserve" text-anchor="middle" x="1754.21" y="-227.15" font-family="Arial" font-size="8.00" fill="white">integrate</text>
</g>
<!-- api_subscriptions -->
<g id="node25" class="node">
<title>api_subscriptions</title>
<polygon fill="#f0e68c" stroke="black" points="600.59,-223.35 600.59,-243.64 566.86,-257.99 519.14,-257.99 485.41,-243.64 485.41,-223.35 519.14,-209 566.86,-209 600.59,-223.35"/>
<text xml:space="preserve" text-anchor="middle" x="543" y="-236" font-family="Arial" font-size="10.00">API Access</text>
<text xml:space="preserve" text-anchor="middle" x="543" y="-224" font-family="Arial" font-size="10.00">Subscriptions</text>
</g>
<!-- api_endpoint&#45;&gt;api_subscriptions -->
<g id="edge27" class="edge">
<title>api_endpoint&#45;&gt;api_subscriptions</title>
<path fill="none" stroke="white" d="M1458.14,-260.02C1458.14,-268.15 1458.14,-275 1458.14,-275 1458.14,-275 543,-275 543,-275 543,-275 543,-269.63 543,-269.63"/>
<polygon fill="white" stroke="white" points="546.5,-269.63 543,-259.63 539.5,-269.63 546.5,-269.63"/>
<text xml:space="preserve" text-anchor="middle" x="999.75" y="-277.15" font-family="Arial" font-size="8.00" fill="white">sell</text>
</g>
<!-- social_revenue&#45;&gt;web_viewer -->
<g id="edge30" class="edge">
<title>social_revenue&#45;&gt;web_viewer</title>
<path fill="none" stroke="#ffd700" stroke-dasharray="5,2" d="M971.84,-233C971.84,-233 1054.73,-233 1054.73,-233"/>
<polygon fill="#ffd700" stroke="#ffd700" points="1054.73,-236.5 1064.73,-233 1054.73,-229.5 1054.73,-236.5"/>
<text xml:space="preserve" text-anchor="middle" x="1005.41" y="-235.15" font-family="Arial" font-size="8.00" fill="white">fund</text>
</g>
<!-- api_subscriptions&#45;&gt;ingest -->
<g id="edge31" class="edge">
<title>api_subscriptions&#45;&gt;ingest</title>
<path fill="none" stroke="#ffd700" stroke-dasharray="5,2" d="M484.92,-233C467.11,-233 452.11,-233 452.11,-233 452.11,-233 452.11,-472.57 452.11,-472.57"/>
<polygon fill="#ffd700" stroke="#ffd700" points="448.61,-472.57 452.11,-482.57 455.61,-472.57 448.61,-472.57"/>
<text xml:space="preserve" text-anchor="middle" x="464.48" y="-338.53" font-family="Arial" font-size="8.00" fill="white">sustain</text>
</g>
<!-- civic_contracts&#45;&gt;knowledge -->
<g id="edge32" class="edge">
<title>civic_contracts&#45;&gt;knowledge</title>
<path fill="none" stroke="#ffd700" stroke-dasharray="5,2" d="M769,-208.73C769,-177.83 769,-129 769,-129 769,-129 472.95,-129 472.95,-129"/>
<polygon fill="#ffd700" stroke="#ffd700" points="472.95,-125.5 462.95,-129 472.95,-132.5 472.95,-125.5"/>
<text xml:space="preserve" text-anchor="middle" x="645.46" y="-131.15" font-family="Arial" font-size="8.00" fill="white">enhance</text>
</g>
<!-- analytics_licensing&#45;&gt;entities -->
<g id="edge33" class="edge">
<title>analytics_licensing&#45;&gt;entities</title>
<path fill="none" stroke="#ffd700" stroke-dasharray="5,2" d="M662,-208.55C662,-193.42 662,-177 662,-177 662,-177 405.2,-177 405.2,-177 405.2,-177 405.2,-200.3 405.2,-200.3"/>
<polygon fill="#ffd700" stroke="#ffd700" points="401.7,-200.3 405.2,-210.3 408.7,-200.3 401.7,-200.3"/>
<text xml:space="preserve" text-anchor="middle" x="523.48" y="-179.15" font-family="Arial" font-size="8.00" fill="white">improve</text>
</g>
</g>
</svg>
