<?xml version="1.0" encoding="UTF-8" standalone="no"?>
<!DOCTYPE svg PUBLIC "-//W3C//DTD SVG 1.1//EN"
 "http://www.w3.org/Graphics/SVG/1.1/DTD/svg11.dtd">
<!-- Generated by graphviz version 13.0.1 (20250615.1724)
 -->
<!-- Title: ScrantennaArchitecture Pages: 1 -->
<svg width="2027pt" height="649pt"
 viewBox="0.00 0.00 2027.00 649.00" xmlns="http://www.w3.org/2000/svg" xmlns:xlink="http://www.w3.org/1999/xlink">
<g id="graph0" class="graph" transform="scale(1 1) rotate(0) translate(4 645.13)">
<title>ScrantennaArchitecture</title>
<polygon fill="#1a1a1a" stroke="none" points="-4,4 -4,-645.13 2023,-645.13 2023,4 -4,4"/>
<g id="clust1" class="cluster">
<title>cluster_sources</title>
<polygon fill="#2d2d2d" stroke="black" points="1681,-557.38 1681,-633.13 2011,-633.13 2011,-557.38 1681,-557.38"/>
<text xml:space="preserve" text-anchor="middle" x="1846" y="-615.83" font-family="Arial" font-size="14.00" fill="white">DATA SOURCES</text>
</g>
<g id="clust2" class="cluster">
<title>cluster_aggregation</title>
<polygon fill="#2d2d2d" stroke="black" points="1664,-8 1664,-549.38 1847,-549.38 1847,-8 1664,-8"/>
<text xml:space="preserve" text-anchor="middle" x="1755.5" y="-532.08" font-family="Arial" font-size="14.00" fill="white">AGGREGATION PIPELINE</text>
</g>
<g id="clust3" class="cluster">
<title>cluster_outputs</title>
<polygon fill="#2d2d2d" stroke="black" points="818,-299.37 818,-383.12 1349,-383.12 1349,-299.37 818,-299.37"/>
<text xml:space="preserve" text-anchor="middle" x="1083.5" y="-365.82" font-family="Arial" font-size="14.00" fill="white">CONTENT FORMATS</text>
</g>
<g id="clust4" class="cluster">
<title>cluster_publishing</title>
<polygon fill="#2d2d2d" stroke="black" points="610,-95.13 610,-291.37 1113,-291.37 1113,-95.13 610,-95.13"/>
<text xml:space="preserve" text-anchor="middle" x="861.5" y="-274.07" font-family="Arial" font-size="14.00" fill="white">PUBLISHING CHANNELS</text>
</g>
<g id="clust5" class="cluster">
<title>cluster_audiences</title>
<polygon fill="#2d2d2d" stroke="black" points="8,-89.25 8,-193 602,-193 602,-89.25 8,-89.25"/>
<text xml:space="preserve" text-anchor="middle" x="305" y="-175.7" font-family="Arial" font-size="14.00" fill="white">TARGET AUDIENCES</text>
</g>
<g id="clust6" class="cluster">
<title>cluster_monetization</title>
<polygon fill="#2d2d2d" stroke="black" points="1153,-201 1153,-289.74 1656,-289.74 1656,-201 1153,-201"/>
<text xml:space="preserve" text-anchor="middle" x="1404.5" y="-272.44" font-family="Arial" font-size="14.00" fill="white">MONETIZATION STRATEGIES</text>
</g>
<!-- newsapi -->
<g id="node1" class="node">
<title>newsapi</title>
<polygon fill="#4caf50" stroke="black" points="1783.38,-601.38 1688.62,-601.38 1688.62,-565.38 1783.38,-565.38 1783.38,-601.38"/>
<text xml:space="preserve" text-anchor="middle" x="1736" y="-585.88" font-family="Arial" font-size="10.00">NewsAPI</text>
<text xml:space="preserve" text-anchor="middle" x="1736" y="-573.88" font-family="Arial" font-size="10.00">(Scranton Stories)</text>
</g>
<!-- ingest -->
<g id="node4" class="node">
<title>ingest</title>
<ellipse fill="#667eea" stroke="black" cx="1745" cy="-495.01" rx="72.83" ry="22.63"/>
<text xml:space="preserve" text-anchor="middle" x="1745" y="-497.51" font-family="Arial" font-size="10.00">News Ingestion</text>
<text xml:space="preserve" text-anchor="middle" x="1745" y="-485.51" font-family="Arial" font-size="10.00">(ingest_news.ipynb)</text>
</g>
<!-- newsapi&#45;&gt;ingest -->
<g id="edge1" class="edge">
<title>newsapi&#45;&gt;ingest</title>
<path fill="none" stroke="white" d="M1736,-565.07C1736,-565.07 1736,-529.21 1736,-529.21"/>
<polygon fill="white" stroke="white" points="1739.5,-529.21 1736,-519.21 1732.5,-529.21 1739.5,-529.21"/>
<text xml:space="preserve" text-anchor="middle" x="1727.38" y="-549.29" font-family="Arial" font-size="8.00" fill="white">fetch</text>
</g>
<!-- openai -->
<g id="node2" class="node">
<title>openai</title>
<polygon fill="#ff9800" stroke="black" points="1890.75,-601.38 1801.25,-601.38 1801.25,-565.38 1890.75,-565.38 1890.75,-601.38"/>
<text xml:space="preserve" text-anchor="middle" x="1846" y="-585.88" font-family="Arial" font-size="10.00">OpenAI GPT</text>
<text xml:space="preserve" text-anchor="middle" x="1846" y="-573.88" font-family="Arial" font-size="10.00">(Text Distillation)</text>
</g>
<!-- distill -->
<g id="node5" class="node">
<title>distill</title>
<ellipse fill="#f093fb" stroke="black" cx="1741" cy="-413.75" rx="43.66" ry="22.63"/>
<text xml:space="preserve" text-anchor="middle" x="1741" y="-416.25" font-family="Arial" font-size="10.00">Intelligent</text>
<text xml:space="preserve" text-anchor="middle" x="1741" y="-404.25" font-family="Arial" font-size="10.00">Distillation</text>
</g>
<!-- openai&#45;&gt;distill -->
<g id="edge2" class="edge">
<title>openai&#45;&gt;distill</title>
<path fill="none" stroke="white" d="M1854.29,-564.93C1854.29,-521.03 1854.29,-414 1854.29,-414 1854.29,-414 1796.64,-414 1796.64,-414"/>
<polygon fill="white" stroke="white" points="1796.64,-410.5 1786.64,-414 1796.64,-417.5 1796.64,-410.5"/>
<text xml:space="preserve" text-anchor="middle" x="1840.42" y="-462.79" font-family="Arial" font-size="8.00" fill="white">process</text>
</g>
<!-- spacy -->
<g id="node3" class="node">
<title>spacy</title>
<polygon fill="#2196f3" stroke="black" points="2003.38,-601.38 1908.62,-601.38 1908.62,-565.38 2003.38,-565.38 2003.38,-601.38"/>
<text xml:space="preserve" text-anchor="middle" x="1956" y="-585.88" font-family="Arial" font-size="10.00">SpaCy NLP</text>
<text xml:space="preserve" text-anchor="middle" x="1956" y="-573.88" font-family="Arial" font-size="10.00">(Entity Extraction)</text>
</g>
<!-- entities -->
<g id="node7" class="node">
<title>entities</title>
<ellipse fill="#43e97b" stroke="black" cx="1738" cy="-233.5" rx="42.6" ry="22.63"/>
<text xml:space="preserve" text-anchor="middle" x="1738" y="-236" font-family="Arial" font-size="10.00">Entity</text>
<text xml:space="preserve" text-anchor="middle" x="1738" y="-224" font-family="Arial" font-size="10.00">Extraction</text>
</g>
<!-- spacy&#45;&gt;entities -->
<g id="edge3" class="edge">
<title>spacy&#45;&gt;entities</title>
<path fill="none" stroke="white" d="M1956,-565.04C1956,-492.95 1956,-233 1956,-233 1956,-233 1792.58,-233 1792.58,-233"/>
<polygon fill="white" stroke="white" points="1792.58,-229.5 1782.58,-233 1792.58,-236.5 1792.58,-229.5"/>
<text xml:space="preserve" text-anchor="middle" x="1944" y="-319.46" font-family="Arial" font-size="8.00" fill="white">extract</text>
</g>
<!-- ingest&#45;&gt;distill -->
<g id="edge4" class="edge">
<title>ingest&#45;&gt;distill</title>
<path fill="none" stroke="white" d="M1741,-471.94C1741,-471.94 1741,-448.39 1741,-448.39"/>
<polygon fill="white" stroke="white" points="1744.5,-448.39 1741,-438.39 1737.5,-448.39 1744.5,-448.39"/>
<text xml:space="preserve" text-anchor="middle" x="1728.63" y="-462.31" font-family="Arial" font-size="8.00" fill="white">articles</text>
</g>
<!-- raw_news -->
<g id="node10" class="node">
<title>raw_news</title>
<path fill="#ffecd2" stroke="black" d="M1017.75,-347.37C1017.75,-349.58 1001.73,-351.37 982,-351.37 962.27,-351.37 946.25,-349.58 946.25,-347.37 946.25,-347.37 946.25,-311.37 946.25,-311.37 946.25,-309.17 962.27,-307.37 982,-307.37 1001.73,-307.37 1017.75,-309.17 1017.75,-311.37 1017.75,-311.37 1017.75,-347.37 1017.75,-347.37"/>
<path fill="none" stroke="black" d="M1017.75,-347.37C1017.75,-345.17 1001.73,-343.37 982,-343.37 962.27,-343.37 946.25,-345.17 946.25,-347.37"/>
<text xml:space="preserve" text-anchor="middle" x="982" y="-331.87" font-family="Arial" font-size="10.00">Raw Articles</text>
<text xml:space="preserve" text-anchor="middle" x="982" y="-319.87" font-family="Arial" font-size="10.00">(JSON)</text>
</g>
<!-- ingest&#45;&gt;raw_news -->
<g id="edge9" class="edge">
<title>ingest&#45;&gt;raw_news</title>
<path fill="none" stroke="white" d="M1671.84,-495C1480.87,-495 982,-495 982,-495 982,-495 982,-363.23 982,-363.23"/>
<polygon fill="white" stroke="white" points="985.5,-363.22 982,-353.23 978.5,-363.23 985.5,-363.22"/>
</g>
<!-- sentiment -->
<g id="node6" class="node">
<title>sentiment</title>
<ellipse fill="#4facfe" stroke="black" cx="1738" cy="-329.37" rx="42.6" ry="22.63"/>
<text xml:space="preserve" text-anchor="middle" x="1738" y="-331.87" font-family="Arial" font-size="10.00">Sentiment</text>
<text xml:space="preserve" text-anchor="middle" x="1738" y="-319.87" font-family="Arial" font-size="10.00">Analysis</text>
</g>
<!-- distill&#45;&gt;sentiment -->
<g id="edge5" class="edge">
<title>distill&#45;&gt;sentiment</title>
<path fill="none" stroke="white" d="M1738.97,-390.7C1738.97,-390.7 1738.97,-363.92 1738.97,-363.92"/>
<polygon fill="white" stroke="white" points="1742.47,-363.92 1738.97,-353.92 1735.47,-363.92 1742.47,-363.92"/>
<text xml:space="preserve" text-anchor="middle" x="1732.59" y="-379.46" font-family="Arial" font-size="8.00" fill="white">text</text>
</g>
<!-- distilled_text -->
<g id="node11" class="node">
<title>distilled_text</title>
<path fill="#ff8a80" stroke="black" d="M1112.38,-347.37C1112.38,-349.58 1095.17,-351.37 1074,-351.37 1052.83,-351.37 1035.62,-349.58 1035.62,-347.37 1035.62,-347.37 1035.62,-311.37 1035.62,-311.37 1035.62,-309.17 1052.83,-307.37 1074,-307.37 1095.17,-307.37 1112.38,-309.17 1112.38,-311.37 1112.38,-311.37 1112.38,-347.37 1112.38,-347.37"/>
<path fill="none" stroke="black" d="M1112.38,-347.37C1112.38,-345.17 1095.17,-343.37 1074,-343.37 1052.83,-343.37 1035.62,-345.17 1035.62,-347.37"/>
<text xml:space="preserve" text-anchor="middle" x="1074" y="-331.87" font-family="Arial" font-size="10.00">Distilled Text</text>
<text xml:space="preserve" text-anchor="middle" x="1074" y="-319.87" font-family="Arial" font-size="10.00">(SVO Format)</text>
</g>
<!-- distill&#45;&gt;distilled_text -->
<g id="edge10" class="edge">
<title>distill&#45;&gt;distilled_text</title>
<path fill="none" stroke="white" d="M1696.98,-414C1548.3,-414 1074,-414 1074,-414 1074,-414 1074,-363.12 1074,-363.12"/>
<polygon fill="white" stroke="white" points="1077.5,-363.12 1074,-353.12 1070.5,-363.12 1077.5,-363.12"/>
</g>
<!-- sentiment&#45;&gt;entities -->
<g id="edge6" class="edge">
<title>sentiment&#45;&gt;entities</title>
<path fill="none" stroke="white" d="M1752.2,-307.62C1752.2,-307.62 1752.2,-266.68 1752.2,-266.68"/>
<polygon fill="white" stroke="white" points="1755.7,-266.68 1752.2,-256.68 1748.7,-266.68 1755.7,-266.68"/>
<text xml:space="preserve" text-anchor="middle" x="1739.08" y="-289.3" font-family="Arial" font-size="8.00" fill="white">content</text>
</g>
<!-- sentiment_data -->
<g id="node12" class="node">
<title>sentiment_data</title>
<path fill="#82b1ff" stroke="black" d="M1341,-347.37C1341,-349.58 1319.93,-351.37 1294,-351.37 1268.07,-351.37 1247,-349.58 1247,-347.37 1247,-347.37 1247,-311.37 1247,-311.37 1247,-309.17 1268.07,-307.37 1294,-307.37 1319.93,-307.37 1341,-309.17 1341,-311.37 1341,-311.37 1341,-347.37 1341,-347.37"/>
<path fill="none" stroke="black" d="M1341,-347.37C1341,-345.17 1319.93,-343.37 1294,-343.37 1268.07,-343.37 1247,-345.17 1247,-347.37"/>
<text xml:space="preserve" text-anchor="middle" x="1294" y="-331.87" font-family="Arial" font-size="10.00">Sentiment Scores</text>
<text xml:space="preserve" text-anchor="middle" x="1294" y="-319.87" font-family="Arial" font-size="10.00">(VADER)</text>
</g>
<!-- sentiment&#45;&gt;sentiment_data -->
<g id="edge11" class="edge">
<title>sentiment&#45;&gt;sentiment_data</title>
<path fill="none" stroke="white" d="M1697.42,-337C1697.42,-337 1352.79,-337 1352.79,-337"/>
<polygon fill="white" stroke="white" points="1352.79,-333.5 1342.79,-337 1352.79,-340.5 1352.79,-333.5"/>
</g>
<!-- knowledge -->
<g id="node8" class="node">
<title>knowledge</title>
<ellipse fill="#fa709a" stroke="black" cx="1738" cy="-129.25" rx="65.94" ry="22.63"/>
<text xml:space="preserve" text-anchor="middle" x="1738" y="-131.75" font-family="Arial" font-size="10.00">Knowledge Graph</text>
<text xml:space="preserve" text-anchor="middle" x="1738" y="-119.75" font-family="Arial" font-size="10.00">Construction</text>
</g>
<!-- entities&#45;&gt;knowledge -->
<g id="edge7" class="edge">
<title>entities&#45;&gt;knowledge</title>
<path fill="none" stroke="white" d="M1738,-210.62C1738,-210.62 1738,-163.59 1738,-163.59"/>
<polygon fill="white" stroke="white" points="1741.5,-163.59 1738,-153.59 1734.5,-163.59 1741.5,-163.59"/>
<text xml:space="preserve" text-anchor="middle" x="1725.62" y="-189.26" font-family="Arial" font-size="8.00" fill="white">entities</text>
</g>
<!-- shorts -->
<g id="node9" class="node">
<title>shorts</title>
<ellipse fill="#a8edea" stroke="black" cx="1727" cy="-38.63" rx="44.72" ry="22.63"/>
<text xml:space="preserve" text-anchor="middle" x="1727" y="-41.13" font-family="Arial" font-size="10.00">Shorts</text>
<text xml:space="preserve" text-anchor="middle" x="1727" y="-29.13" font-family="Arial" font-size="10.00">Generation</text>
</g>
<!-- knowledge&#45;&gt;shorts -->
<g id="edge8" class="edge">
<title>knowledge&#45;&gt;shorts</title>
<path fill="none" stroke="white" d="M1727,-106.85C1727,-106.85 1727,-73.23 1727,-73.23"/>
<polygon fill="white" stroke="white" points="1730.5,-73.23 1727,-63.23 1723.5,-73.23 1730.5,-73.23"/>
<text xml:space="preserve" text-anchor="middle" x="1714.62" y="-92.19" font-family="Arial" font-size="8.00" fill="white">graphs</text>
</g>
<!-- graph_viz -->
<g id="node13" class="node">
<title>graph_viz</title>
<path fill="#84fab0" stroke="black" d="M1229.25,-347.37C1229.25,-349.58 1207.18,-351.37 1180,-351.37 1152.82,-351.37 1130.75,-349.58 1130.75,-347.37 1130.75,-347.37 1130.75,-311.37 1130.75,-311.37 1130.75,-309.17 1152.82,-307.37 1180,-307.37 1207.18,-307.37 1229.25,-309.17 1229.25,-311.37 1229.25,-311.37 1229.25,-347.37 1229.25,-347.37"/>
<path fill="none" stroke="black" d="M1229.25,-347.37C1229.25,-345.17 1207.18,-343.37 1180,-343.37 1152.82,-343.37 1130.75,-345.17 1130.75,-347.37"/>
<text xml:space="preserve" text-anchor="middle" x="1180" y="-331.87" font-family="Arial" font-size="10.00">Knowledge Graphs</text>
<text xml:space="preserve" text-anchor="middle" x="1180" y="-319.87" font-family="Arial" font-size="10.00">(SVG/DOT)</text>
</g>
<!-- knowledge&#45;&gt;graph_viz -->
<g id="edge12" class="edge">
<title>knowledge&#45;&gt;graph_viz</title>
<path fill="none" stroke="white" d="M1674.92,-122C1523.35,-122 1151.15,-122 1151.15,-122 1151.15,-122 1151.15,-295.67 1151.15,-295.67"/>
<polygon fill="white" stroke="white" points="1147.65,-295.67 1151.15,-305.67 1154.65,-295.67 1147.65,-295.67"/>
</g>
<!-- shorts_data -->
<g id="node14" class="node">
<title>shorts_data</title>
<path fill="#b388ff" stroke="black" d="M928.12,-347.37C928.12,-349.58 905.21,-351.37 877,-351.37 848.79,-351.37 825.88,-349.58 825.88,-347.37 825.88,-347.37 825.88,-311.37 825.88,-311.37 825.88,-309.17 848.79,-307.37 877,-307.37 905.21,-307.37 928.12,-309.17 928.12,-311.37 928.12,-311.37 928.12,-347.37 928.12,-347.37"/>
<path fill="none" stroke="black" d="M928.12,-347.37C928.12,-345.17 905.21,-343.37 877,-343.37 848.79,-343.37 825.88,-345.17 825.88,-347.37"/>
<text xml:space="preserve" text-anchor="middle" x="877" y="-331.87" font-family="Arial" font-size="10.00">TikTok&#45;Style Shorts</text>
<text xml:space="preserve" text-anchor="middle" x="877" y="-319.87" font-family="Arial" font-size="10.00">(JSON+SVG)</text>
</g>
<!-- shorts&#45;&gt;shorts_data -->
<g id="edge13" class="edge">
<title>shorts&#45;&gt;shorts_data</title>
<path fill="none" stroke="white" d="M1681.96,-39C1494.59,-39 786.58,-39 786.58,-39 786.58,-39 786.58,-322 786.58,-322 786.58,-322 813.94,-322 813.94,-322"/>
<polygon fill="white" stroke="white" points="813.94,-325.5 823.94,-322 813.94,-318.5 813.94,-325.5"/>
</g>
<!-- api_endpoint -->
<g id="node18" class="node">
<title>api_endpoint</title>
<polygon fill="#96ceb4" stroke="black" points="1104.89,-233.5 1072.95,-259.62 1009.05,-259.62 977.11,-233.5 1009.05,-207.37 1072.95,-207.37 1104.89,-233.5"/>
<text xml:space="preserve" text-anchor="middle" x="1041" y="-236" font-family="Arial" font-size="10.00">JSON API</text>
<text xml:space="preserve" text-anchor="middle" x="1041" y="-224" font-family="Arial" font-size="10.00">(Data Access)</text>
</g>
<!-- raw_news&#45;&gt;api_endpoint -->
<g id="edge17" class="edge">
<title>raw_news&#45;&gt;api_endpoint</title>
<path fill="none" stroke="white" d="M997.43,-307.14C997.43,-307.14 997.43,-262.04 997.43,-262.04"/>
<polygon fill="white" stroke="white" points="1000.93,-262.04 997.43,-252.04 993.93,-262.04 1000.93,-262.04"/>
<text xml:space="preserve" text-anchor="middle" x="987.68" y="-286.74" font-family="Arial" font-size="8.00" fill="white">serve</text>
</g>
<!-- distilled_text&#45;&gt;api_endpoint -->
<g id="edge18" class="edge">
<title>distilled_text&#45;&gt;api_endpoint</title>
<path fill="none" stroke="white" d="M1070.26,-307.14C1070.26,-307.14 1070.26,-271.56 1070.26,-271.56"/>
<polygon fill="white" stroke="white" points="1073.76,-271.56 1070.26,-261.56 1066.76,-271.56 1073.76,-271.56"/>
</g>
<!-- sentiment_data&#45;&gt;api_endpoint -->
<g id="edge19" class="edge">
<title>sentiment_data&#45;&gt;api_endpoint</title>
<path fill="none" stroke="white" d="M1273.82,-306.96C1273.82,-299.47 1273.82,-293 1273.82,-293 1273.82,-293 1087.57,-293 1087.57,-293 1087.57,-293 1087.57,-259.72 1087.57,-259.72"/>
<polygon fill="white" stroke="white" points="1091.07,-259.72 1087.57,-249.72 1084.07,-259.72 1091.07,-259.72"/>
</g>
<!-- civic_contracts -->
<g id="node25" class="node">
<title>civic_contracts</title>
<polygon fill="#deb887" stroke="black" points="1513.97,-223.35 1513.97,-243.64 1487.63,-257.99 1450.37,-257.99 1424.03,-243.64 1424.03,-223.35 1450.37,-209 1487.63,-209 1513.97,-223.35"/>
<text xml:space="preserve" text-anchor="middle" x="1469" y="-236" font-family="Arial" font-size="10.00">Municipal</text>
<text xml:space="preserve" text-anchor="middle" x="1469" y="-224" font-family="Arial" font-size="10.00">Contracts</text>
</g>
<!-- sentiment_data&#45;&gt;civic_contracts -->
<g id="edge27" class="edge">
<title>sentiment_data&#45;&gt;civic_contracts</title>
<path fill="none" stroke="white" d="M1341.36,-322C1393.18,-322 1469,-322 1469,-322 1469,-322 1469,-269.66 1469,-269.66"/>
<polygon fill="white" stroke="white" points="1472.5,-269.66 1469,-259.66 1465.5,-269.66 1472.5,-269.66"/>
<text xml:space="preserve" text-anchor="middle" x="1420.1" y="-324.15" font-family="Arial" font-size="8.00" fill="white">inform</text>
</g>
<!-- graph_viz&#45;&gt;api_endpoint -->
<g id="edge20" class="edge">
<title>graph_viz&#45;&gt;api_endpoint</title>
<path fill="none" stroke="white" d="M1140.95,-307.99C1140.95,-279.59 1140.95,-233 1140.95,-233 1140.95,-233 1116.38,-233 1116.38,-233"/>
<polygon fill="white" stroke="white" points="1116.38,-229.5 1106.38,-233 1116.38,-236.5 1116.38,-229.5"/>
</g>
<!-- analytics_licensing -->
<g id="node26" class="node">
<title>analytics_licensing</title>
<polygon fill="#f5deb3" stroke="black" points="1405.82,-223.35 1405.82,-243.64 1380.15,-257.99 1343.85,-257.99 1318.18,-243.64 1318.18,-223.35 1343.85,-209 1380.15,-209 1405.82,-223.35"/>
<text xml:space="preserve" text-anchor="middle" x="1362" y="-236" font-family="Arial" font-size="10.00">Analytics</text>
<text xml:space="preserve" text-anchor="middle" x="1362" y="-224" font-family="Arial" font-size="10.00">Licensing</text>
</g>
<!-- graph_viz&#45;&gt;analytics_licensing -->
<g id="edge28" class="edge">
<title>graph_viz&#45;&gt;analytics_licensing</title>
<path fill="none" stroke="white" d="M1212.28,-307.57C1212.28,-294.35 1212.28,-280 1212.28,-280 1212.28,-280 1329.59,-280 1329.59,-280 1329.59,-280 1329.59,-262.06 1329.59,-262.06"/>
<polygon fill="white" stroke="white" points="1333.09,-262.06 1329.59,-252.06 1326.09,-262.06 1333.09,-262.06"/>
<text xml:space="preserve" text-anchor="middle" x="1254.12" y="-282.15" font-family="Arial" font-size="8.00" fill="white">license</text>
</g>
<!-- web_viewer -->
<g id="node15" class="node">
<title>web_viewer</title>
<polygon fill="#ff6b6b" stroke="black" points="958.65,-233.5 917.82,-259.62 836.18,-259.62 795.35,-233.5 836.18,-207.37 917.82,-207.37 958.65,-233.5"/>
<text xml:space="preserve" text-anchor="middle" x="877" y="-236" font-family="Arial" font-size="10.00">Web Shorts Viewer</text>
<text xml:space="preserve" text-anchor="middle" x="877" y="-224" font-family="Arial" font-size="10.00">(index.html)</text>
</g>
<!-- shorts_data&#45;&gt;web_viewer -->
<g id="edge14" class="edge">
<title>shorts_data&#45;&gt;web_viewer</title>
<path fill="none" stroke="white" d="M877,-307.14C877,-307.14 877,-271.56 877,-271.56"/>
<polygon fill="white" stroke="white" points="880.5,-271.56 877,-261.56 873.5,-271.56 880.5,-271.56"/>
<text xml:space="preserve" text-anchor="middle" x="869.5" y="-291.5" font-family="Arial" font-size="8.00" fill="white">load</text>
</g>
<!-- social_export -->
<g id="node17" class="node">
<title>social_export</title>
<polygon fill="#45b7d1" stroke="black" points="777.81,-233.5 737.91,-259.62 658.09,-259.62 618.19,-233.5 658.09,-207.37 737.91,-207.37 777.81,-233.5"/>
<text xml:space="preserve" text-anchor="middle" x="698" y="-236" font-family="Arial" font-size="10.00">Social Media</text>
<text xml:space="preserve" text-anchor="middle" x="698" y="-224" font-family="Arial" font-size="10.00">(TikTok/Instagram)</text>
</g>
<!-- shorts_data&#45;&gt;social_export -->
<g id="edge16" class="edge">
<title>shorts_data&#45;&gt;social_export</title>
<path fill="none" stroke="white" d="M825.41,-337C781.19,-337 724.6,-337 724.6,-337 724.6,-337 724.6,-271.4 724.6,-271.4"/>
<polygon fill="white" stroke="white" points="728.1,-271.4 724.6,-261.4 721.1,-271.4 728.1,-271.4"/>
<text xml:space="preserve" text-anchor="middle" x="730.95" y="-339.15" font-family="Arial" font-size="8.00" fill="white">export</text>
</g>
<!-- github_pages -->
<g id="node16" class="node">
<title>github_pages</title>
<polygon fill="#4ecdc4" stroke="black" points="945.79,-129.25 911.39,-155.38 842.61,-155.38 808.21,-129.25 842.61,-103.13 911.39,-103.13 945.79,-129.25"/>
<text xml:space="preserve" text-anchor="middle" x="877" y="-131.75" font-family="Arial" font-size="10.00">GitHub Pages</text>
<text xml:space="preserve" text-anchor="middle" x="877" y="-119.75" font-family="Arial" font-size="10.00">(Static Hosting)</text>
</g>
<!-- web_viewer&#45;&gt;github_pages -->
<g id="edge15" class="edge">
<title>web_viewer&#45;&gt;github_pages</title>
<path fill="none" stroke="white" d="M877,-206.92C877,-206.92 877,-167.29 877,-167.29"/>
<polygon fill="white" stroke="white" points="880.5,-167.29 877,-157.29 873.5,-167.29 880.5,-167.29"/>
<text xml:space="preserve" text-anchor="middle" x="869.5" y="-189.26" font-family="Arial" font-size="8.00" fill="white">host</text>
</g>
<!-- local_residents -->
<g id="node19" class="node">
<title>local_residents</title>
<polygon fill="#ffeaa7" stroke="black" points="240,-161.25 179.75,-129.25 240,-97.25 300.25,-129.25 240,-161.25"/>
<text xml:space="preserve" text-anchor="middle" x="240" y="-131.75" font-family="Arial" font-size="10.00">Scranton</text>
<text xml:space="preserve" text-anchor="middle" x="240" y="-119.75" font-family="Arial" font-size="10.00">Residents</text>
</g>
<!-- web_viewer&#45;&gt;local_residents -->
<g id="edge21" class="edge">
<title>web_viewer&#45;&gt;local_residents</title>
<path fill="none" stroke="white" d="M801.78,-228.9C801.78,-218.89 801.78,-196 801.78,-196 801.78,-196 240,-196 240,-196 240,-196 240,-172.97 240,-172.97"/>
<polygon fill="white" stroke="white" points="243.5,-172.97 240,-162.97 236.5,-172.97 243.5,-172.97"/>
<text xml:space="preserve" text-anchor="middle" x="512.32" y="-198.15" font-family="Arial" font-size="8.00" fill="white">engage</text>
</g>
<!-- news_consumers -->
<g id="node20" class="node">
<title>news_consumers</title>
<polygon fill="#dda0dd" stroke="black" points="89,-161.25 16,-129.25 89,-97.25 162,-129.25 89,-161.25"/>
<text xml:space="preserve" text-anchor="middle" x="89" y="-131.75" font-family="Arial" font-size="10.00">Mobile News</text>
<text xml:space="preserve" text-anchor="middle" x="89" y="-119.75" font-family="Arial" font-size="10.00">Consumers</text>
</g>
<!-- social_export&#45;&gt;news_consumers -->
<g id="edge22" class="edge">
<title>social_export&#45;&gt;news_consumers</title>
<path fill="none" stroke="white" d="M618.07,-233C452.85,-233 89,-233 89,-233 89,-233 89,-173.31 89,-173.31"/>
<polygon fill="white" stroke="white" points="92.5,-173.31 89,-163.31 85.5,-173.31 92.5,-173.31"/>
<text xml:space="preserve" text-anchor="middle" x="313.57" y="-235.15" font-family="Arial" font-size="8.00" fill="white">reach</text>
</g>
<!-- social_revenue -->
<g id="node23" class="node">
<title>social_revenue</title>
<polygon fill="#ffb6c1" stroke="black" points="1300.65,-223.35 1300.65,-243.64 1259.85,-257.99 1202.15,-257.99 1161.35,-243.64 1161.35,-223.35 1202.15,-209 1259.85,-209 1300.65,-223.35"/>
<text xml:space="preserve" text-anchor="middle" x="1231" y="-236" font-family="Arial" font-size="10.00">Social Media</text>
<text xml:space="preserve" text-anchor="middle" x="1231" y="-224" font-family="Arial" font-size="10.00">Revenue Sharing</text>
</g>
<!-- social_export&#45;&gt;social_revenue -->
<g id="edge25" class="edge">
<title>social_export&#45;&gt;social_revenue</title>
<path fill="none" stroke="white" d="M671.4,-260.07C671.4,-267.21 671.4,-273 671.4,-273 671.4,-273 1195.3,-273 1195.3,-273 1195.3,-273 1195.3,-267.53 1195.3,-267.53"/>
<polygon fill="white" stroke="white" points="1198.8,-267.53 1195.3,-257.53 1191.8,-267.53 1198.8,-267.53"/>
<text xml:space="preserve" text-anchor="middle" x="945.74" y="-265.4" font-family="Arial" font-size="8.00" fill="white">generate</text>
</g>
<!-- data_analysts -->
<g id="node21" class="node">
<title>data_analysts</title>
<polygon fill="#98d8c8" stroke="black" points="381,-161.25 318.5,-129.25 381,-97.25 443.5,-129.25 381,-161.25"/>
<text xml:space="preserve" text-anchor="middle" x="381" y="-131.75" font-family="Arial" font-size="10.00">Civic Data</text>
<text xml:space="preserve" text-anchor="middle" x="381" y="-119.75" font-family="Arial" font-size="10.00">Analysts</text>
</g>
<!-- api_endpoint&#45;&gt;data_analysts -->
<g id="edge23" class="edge">
<title>api_endpoint&#45;&gt;data_analysts</title>
<path fill="none" stroke="white" d="M1019.7,-207.01C1019.7,-195.24 1019.7,-184 1019.7,-184 1019.7,-184 381,-184 381,-184 381,-184 381,-173.25 381,-173.25"/>
<polygon fill="white" stroke="white" points="384.5,-173.25 381,-163.25 377.5,-173.25 384.5,-173.25"/>
<text xml:space="preserve" text-anchor="middle" x="693.35" y="-186.15" font-family="Arial" font-size="8.00" fill="white">provide</text>
</g>
<!-- developers -->
<g id="node22" class="node">
<title>developers</title>
<polygon fill="#f7dc6f" stroke="black" points="528,-161.25 461.75,-129.25 528,-97.25 594.25,-129.25 528,-161.25"/>
<text xml:space="preserve" text-anchor="middle" x="528" y="-131.75" font-family="Arial" font-size="10.00">API</text>
<text xml:space="preserve" text-anchor="middle" x="528" y="-119.75" font-family="Arial" font-size="10.00">Consumers</text>
</g>
<!-- api_endpoint&#45;&gt;developers -->
<g id="edge24" class="edge">
<title>api_endpoint&#45;&gt;developers</title>
<path fill="none" stroke="white" d="M1062.3,-207.14C1062.3,-190.84 1062.3,-173 1062.3,-173 1062.3,-173 528,-173 528,-173 528,-173 528,-171.85 528,-171.85"/>
<polygon fill="white" stroke="white" points="531.5,-173.02 528,-163.02 524.5,-173.02 531.5,-173.02"/>
<text xml:space="preserve" text-anchor="middle" x="795.89" y="-175.15" font-family="Arial" font-size="8.00" fill="white">integrate</text>
</g>
<!-- api_subscriptions -->
<g id="node24" class="node">
<title>api_subscriptions</title>
<polygon fill="#f0e68c" stroke="black" points="1647.59,-223.35 1647.59,-243.64 1613.86,-257.99 1566.14,-257.99 1532.41,-243.64 1532.41,-223.35 1566.14,-209 1613.86,-209 1647.59,-223.35"/>
<text xml:space="preserve" text-anchor="middle" x="1590" y="-236" font-family="Arial" font-size="10.00">API Access</text>
<text xml:space="preserve" text-anchor="middle" x="1590" y="-224" font-family="Arial" font-size="10.00">Subscriptions</text>
</g>
<!-- api_endpoint&#45;&gt;api_subscriptions -->
<g id="edge26" class="edge">
<title>api_endpoint&#45;&gt;api_subscriptions</title>
<path fill="none" stroke="white" d="M1052.94,-259.93C1052.94,-273.41 1052.94,-287 1052.94,-287 1052.94,-287 1590,-287 1590,-287 1590,-287 1590,-269.88 1590,-269.88"/>
<polygon fill="white" stroke="white" points="1593.5,-269.88 1590,-259.88 1586.5,-269.88 1593.5,-269.88"/>
<text xml:space="preserve" text-anchor="middle" x="1310.87" y="-289.15" font-family="Arial" font-size="8.00" fill="white">sell</text>
</g>
<!-- social_revenue&#45;&gt;web_viewer -->
<g id="edge29" class="edge">
<title>social_revenue&#45;&gt;web_viewer</title>
<path fill="none" stroke="#ffd700" stroke-dasharray="5,2" d="M1178.33,-250.13C1178.33,-258.13 1178.33,-266 1178.33,-266 1178.33,-266 952.45,-266 952.45,-266 952.45,-266 952.45,-249.53 952.45,-249.53"/>
<polygon fill="#ffd700" stroke="#ffd700" points="955.95,-249.53 952.45,-239.53 948.95,-249.53 955.95,-249.53"/>
<text xml:space="preserve" text-anchor="middle" x="1057.21" y="-268.15" font-family="Arial" font-size="8.00" fill="white">fund</text>
</g>
<!-- api_subscriptions&#45;&gt;ingest -->
<g id="edge30" class="edge">
<title>api_subscriptions&#45;&gt;ingest</title>
<path fill="none" stroke="#ffd700" stroke-dasharray="5,2" d="M1648.06,-233C1667.25,-233 1683.78,-233 1683.78,-233 1683.78,-233 1683.78,-470.86 1683.78,-470.86"/>
<polygon fill="#ffd700" stroke="#ffd700" points="1680.28,-470.86 1683.78,-480.86 1687.28,-470.86 1680.28,-470.86"/>
<text xml:space="preserve" text-anchor="middle" x="1671.41" y="-336.22" font-family="Arial" font-size="8.00" fill="white">sustain</text>
</g>
<!-- civic_contracts&#45;&gt;knowledge -->
<g id="edge31" class="edge">
<title>civic_contracts&#45;&gt;knowledge</title>
<path fill="none" stroke="#ffd700" stroke-dasharray="5,2" d="M1469,-208.65C1469,-180.06 1469,-137 1469,-137 1469,-137 1664.1,-137 1664.1,-137"/>
<polygon fill="#ffd700" stroke="#ffd700" points="1664.1,-140.5 1674.1,-137 1664.1,-133.5 1664.1,-140.5"/>
<text xml:space="preserve" text-anchor="middle" x="1515.35" y="-139.15" font-family="Arial" font-size="8.00" fill="white">enhance</text>
</g>
<!-- analytics_licensing&#45;&gt;entities -->
<g id="edge32" class="edge">
<title>analytics_licensing&#45;&gt;entities</title>
<path fill="none" stroke="#ffd700" stroke-dasharray="5,2" d="M1373.41,-258.26C1373.41,-277.17 1373.41,-300 1373.41,-300 1373.41,-300 1723.8,-300 1723.8,-300 1723.8,-300 1723.8,-266.79 1723.8,-266.79"/>
<polygon fill="#ffd700" stroke="#ffd700" points="1727.3,-266.79 1723.8,-256.79 1720.3,-266.79 1727.3,-266.79"/>
<text xml:space="preserve" text-anchor="middle" x="1530.09" y="-302.15" font-family="Arial" font-size="8.00" fill="white">improve</text>
</g>
</g>
</svg>
